<?xml version="1.0" standalone="no"?>
<!DOCTYPE svg PUBLIC "-//W3C//DTD SVG 1.1//EN" "http://www.w3.org/Graphics/SVG/1.1/DTD/svg11.dtd" >
<!--
2013-9-30: Created.
-->
<svg>
<metadata>
Created by iconfont
</metadata>
<defs>

<font id="iconfont" horiz-adv-x="1024" >
  <font-face
    font-family="iconfont"
    font-weight="500"
    font-stretch="normal"
    units-per-em="1024"
    ascent="896"
    descent="-128"
  />
    <missing-glyph />
    
    <glyph glyph-name="x" unicode="x" horiz-adv-x="1001"
d="M281 543q-27 -1 -53 -1h-83q-18 0 -36.5 -6t-32.5 -18.5t-23 -32t-9 -45.5v-76h912v41q0 16 -0.5 30t-0.5 18q0 13 -5 29t-17 29.5t-31.5 22.5t-49.5 9h-133v-97h-438v97zM955 310v-52q0 -23 0.5 -52t0.5 -58t-10.5 -47.5t-26 -30t-33 -16t-31.5 -4.5q-14 -1 -29.5 -0.5
t-29.5 0.5h-32l-45 128h-439l-44 -128h-29h-34q-20 0 -45 1q-25 0 -41 9.5t-25.5 23t-13.5 29.5t-4 30v167h911zM163 247q-12 0 -21 -8.5t-9 -21.5t9 -21.5t21 -8.5q13 0 22 8.5t9 21.5t-9 21.5t-22 8.5zM316 123q-8 -26 -14 -48q-5 -19 -10.5 -37t-7.5 -25t-3 -15t1 -14.5
t9.5 -10.5t21.5 -4h37h67h81h80h64h36q23 0 34 12t2 38q-5 13 -9.5 30.5t-9.5 34.5q-5 19 -11 39h-368zM336 498v228q0 11 2.5 23t10 21.5t20.5 15.5t34 6h188q31 0 51.5 -14.5t20.5 -52.5v-227h-327z" />
    

    
    <glyph glyph-name="right" unicode="&#58910;" d="M253.647872-99.81056l48.335872-48.336896 446.498816 446.589952L301.983744 744.982272 253.647872 696.6464l398.239744-398.232576L253.647872-99.81056z"  horiz-adv-x="1024" />

    
    <glyph glyph-name="share" unicode="&#58911;" d="M753.28 403.36c-50.112 0-94.72 21.696-126.272 55.872l-192-109.696C439.744 333.728 443.072 317.344 443.072 300c0-28.032-7.36-54.208-19.264-77.632l184.512-105.408c30.656 47.808 83.904 79.68 144.896 79.68 95.104 0 172.224-77.12 172.224-172.288S848.384-148 753.28-148s-172.352 77.12-172.352 172.288c0 6.336 1.28 12.416 1.984 18.56l-208.704 119.232 0.704 1.344c-29.056-22.144-64.768-35.84-104.064-35.84-95.168 0-172.288 77.12-172.288 172.288s77.184 172.288 172.288 172.288c50.112 0 94.72-21.76 126.272-55.872l192 109.696C584.256 541.92 580.864 558.368 580.864 575.712 580.864 670.88 658.112 748 753.28 748s172.224-77.12 172.224-172.288C925.504 480.544 848.384 403.36 753.28 403.36zM753.28-79.072c57.152 0 103.36 46.272 103.36 103.36 0 57.088-46.272 103.36-103.36 103.36s-103.36-46.336-103.36-103.36C649.856-32.8 696.128-79.072 753.28-79.072zM270.784 403.36C213.696 403.36 167.424 357.088 167.424 300c0-57.152 46.272-103.36 103.36-103.36S374.144 242.848 374.144 300C374.144 357.088 327.872 403.36 270.784 403.36zM753.28 679.072c-57.152 0-103.36-46.272-103.36-103.36 0-57.088 46.272-103.36 103.36-103.36s103.36 46.272 103.36 103.36C856.64 632.8 810.368 679.072 753.28 679.072z"  horiz-adv-x="1024" />

    
    <glyph glyph-name="check" unicode="&#58881;" d="M887.904 597.792c-12.864 12.064-33.152 11.488-45.216-1.408L415.936 142.016l-233.12 229.696C170.208 384.128 149.952 384 137.536 371.392c-12.416-12.576-12.256-32.864 0.352-45.248l256.48-252.672c0.096-0.096 0.224-0.128 0.32-0.224 0.096-0.096 0.128-0.224 0.224-0.32 2.016-1.92 4.448-3.008 6.784-4.288 1.152-0.672 2.144-1.664 3.36-2.144 3.776-1.472 7.776-2.24 11.744-2.24 4.192 0 8.384 0.832 12.288 2.496 1.312 0.544 2.336 1.664 3.552 2.368 2.4 1.408 4.896 2.592 6.944 4.672 0.096 0.096 0.128 0.256 0.224 0.352 0.064 0.096 0.192 0.128 0.288 0.224l449.184 478.208C901.44 565.408 900.768 585.664 887.904 597.792z"  horiz-adv-x="1024" />

    
    <glyph glyph-name="close" unicode="&#58882;" d="M557.312 382.752l265.28 263.904c12.544 12.48 12.608 32.704 0.128 45.248-12.512 12.576-32.704 12.608-45.248 0.128l-265.344-263.936-263.04 263.84C236.64 704.416 216.384 704.48 203.84 692 191.328 679.52 191.296 659.264 203.776 646.72l262.976-263.776L201.6 119.2c-12.544-12.48-12.608-32.704-0.128-45.248 6.24-6.272 14.464-9.44 22.688-9.44 8.16 0 16.32 3.104 22.56 9.312l265.216 263.808 265.44-266.24c6.24-6.272 14.432-9.408 22.656-9.408 8.192 0 16.352 3.136 22.592 9.344 12.512 12.48 12.544 32.704 0.064 45.248L557.312 382.752z"  horiz-adv-x="1024" />

    
    <glyph glyph-name="locationfill" unicode="&#58883;" d="M512 832C317.92 832 160 674.08 160 480c0-187.36 315.424-520.032 328.832-534.08C494.88-60.448 503.264-64 512-64c0.224 0 0.48 0 0.704 0 8.992 0 17.472 4.192 23.392 10.944l109.216 125.12C790.432 249.824 864 387.072 864 480 864 674.08 706.08 832 512 832zM512 320c-88.384 0-160 71.616-160 160s71.616 160 160 160 160-71.616 160-160S600.384 320 512 320z"  horiz-adv-x="1024" />

    
    <glyph glyph-name="roundcheckfill" unicode="&#58885;" d="M512 830.016C266.08 830.016 65.984 629.92 65.984 384c0-245.952 200.064-446.016 446.016-446.016 245.952 0 446.016 200.064 446.016 446.016C958.016 629.92 757.952 830.016 512 830.016zM727.232 457.568l-256.224-259.008c-0.064-0.064-0.192-0.096-0.256-0.192-0.096-0.064-0.096-0.192-0.192-0.256-2.048-1.984-4.576-3.2-6.944-4.544-1.184-0.672-2.144-1.696-3.392-2.176-3.84-1.536-7.904-2.336-11.968-2.336-4.096 0-8.224 0.8-12.096 2.4-1.28 0.544-2.304 1.632-3.52 2.304-2.368 1.344-4.832 2.528-6.88 4.544-0.064 0.064-0.096 0.192-0.16 0.256-0.064 0.096-0.192 0.096-0.256 0.192l-126.016 129.504c-12.32 12.672-12.032 32.928 0.64 45.248 12.672 12.288 32.896 12.064 45.248-0.64l103.264-106.112 233.28 235.84c12.416 12.576 32.704 12.704 45.248 0.256C739.52 490.4 739.648 470.144 727.232 457.568z"  horiz-adv-x="1024" />

    
    <glyph glyph-name="roundcheck" unicode="&#58886;" d="M512-64C264.96-64 64 136.96 64 384S264.96 832 512 832s448-200.96 448-448S759.04-64 512-64zM512 767.712C300.416 767.712 128.288 595.584 128.288 384c0-211.552 172.128-383.712 383.712-383.712 211.552 0 383.712 172.16 383.712 383.712C895.712 595.584 723.552 767.712 512 767.712zM726.976 502.816c-12.544 12.448-32.832 12.32-45.248-0.256l-233.28-235.84-103.264 106.112c-12.352 12.704-32.608 12.928-45.248 0.64-12.672-12.32-12.96-32.608-0.64-45.248l126.016-129.504c0.064-0.096 0.192-0.096 0.256-0.192 0.064-0.064 0.096-0.192 0.16-0.256 2.016-1.984 4.512-3.2 6.88-4.544 1.248-0.672 2.24-1.792 3.52-2.304 3.872-1.6 8-2.4 12.096-2.4 4.064 0 8.128 0.8 11.968 2.336 1.248 0.512 2.208 1.536 3.392 2.176 2.4 1.344 4.896 2.528 6.944 4.544 0.064 0.064 0.096 0.192 0.192 0.256 0.064 0.096 0.16 0.128 0.256 0.192l256.224 259.008C739.648 470.144 739.52 490.4 726.976 502.816z"  horiz-adv-x="1024" />

    
    <glyph glyph-name="roundclose" unicode="&#58887;" d="M512-64C264.96-64 64 136.96 64 384S264.96 832 512 832s448-200.96 448-448S759.04-64 512-64zM512 767.712C300.416 767.712 128.288 595.584 128.288 384c0-211.552 172.128-383.712 383.712-383.712 211.552 0 383.712 172.16 383.712 383.712C895.712 595.584 723.552 767.712 512 767.712zM557.056 382.624l138.368 136.864c12.576 12.416 12.672 32.672 0.256 45.248-12.416 12.576-32.704 12.672-45.248 0.256l-138.56-137.024-136.448 136.864c-12.512 12.512-32.736 12.576-45.248 0.064-12.512-12.48-12.544-32.736-0.064-45.248l136.256-136.672-137.376-135.904c-12.576-12.448-12.672-32.672-0.256-45.248 6.272-6.336 14.496-9.504 22.752-9.504 8.128 0 16.256 3.104 22.496 9.248l137.568 136.064 138.688-139.136c6.24-6.272 14.432-9.408 22.656-9.408 8.192 0 16.352 3.136 22.592 9.344 12.512 12.48 12.544 32.704 0.064 45.248L557.056 382.624z"  horiz-adv-x="1024" />

    
    <glyph glyph-name="search" unicode="&#58888;" d="M953.504-12.256l-152.608 163.296c61.856 74.496 95.872 167.36 95.872 265.12 0 229.344-186.624 415.968-416.032 415.968-229.344 0-415.968-186.592-415.968-415.968s186.624-415.968 416-415.968c60.096 0.032 118.048 12.576 172.224 37.248 16.096 7.328 23.2 26.304 15.872 42.368-7.328 16.128-26.4 23.264-42.368 15.872-45.856-20.864-94.88-31.456-145.76-31.488-194.08 0-351.968 157.888-351.968 351.968 0 194.048 157.888 351.968 351.968 351.968 194.112 0 352.032-157.888 352.032-351.968 0-91.36-34.848-177.92-98.08-243.744-12.256-12.736-11.84-32.992 0.864-45.248 0.96-0.928 2.208-1.28 3.296-2.08 0.864-1.28 1.312-2.752 2.4-3.904l165.504-177.088c6.272-6.752 14.816-10.144 23.36-10.144 7.84 0 15.68 2.848 21.856 8.64C964.864-45.408 965.568-25.152 953.504-12.256z"  horiz-adv-x="1024" />

    
    <glyph glyph-name="unfold" unicode="&#58889;" d="M890.336 565.088c-12.576 12.416-32.8 12.352-45.248-0.192L517.248 234.048 184.832 563.488c-12.576 12.448-32.8 12.352-45.28-0.192-12.448-12.576-12.352-32.832 0.192-45.28l353.312-350.112c0.544-0.544 1.248-0.672 1.792-1.184 0.128-0.128 0.16-0.288 0.288-0.416 6.24-6.176 14.4-9.28 22.528-9.28 8.224 0 16.48 3.168 22.72 9.472l350.112 353.312C902.976 532.384 902.88 552.64 890.336 565.088z"  horiz-adv-x="1024" />

    
    <glyph glyph-name="back" unicode="&#58890;" d="M671.968-16c-12.288 0-24.576 4.672-33.952 14.048L286.048 350.016c-18.752 18.72-18.752 49.12 0 67.872l351.968 352c18.752 18.752 49.12 18.752 67.872 0 18.752-18.72 18.752-49.12 0-67.872l-318.016-318.048 318.016-318.016c18.752-18.752 18.752-49.12 0-67.872C696.544-11.328 684.256-16 671.968-16z"  horiz-adv-x="1024" />

    
    <glyph glyph-name="right1" unicode="&#58891;" d="M761.056 363.872c0.512 0.992 1.344 1.824 1.792 2.848 8.8 18.304 5.92 40.704-9.664 55.424L399.936 756.256c-19.264 18.208-49.632 17.344-67.872-1.888-18.208-19.264-17.376-49.632 1.888-67.872l316.96-299.84-315.712-304.288c-19.072-18.4-19.648-48.768-1.248-67.872 9.408-9.792 21.984-14.688 34.56-14.688 12 0 24 4.48 33.312 13.44l350.048 337.376c0.672 0.672 0.928 1.6 1.6 2.304 0.512 0.48 1.056 0.832 1.568 1.344C757.76 357.12 759.2 360.608 761.056 363.872z"  horiz-adv-x="1024" />

    
    <glyph glyph-name="fold" unicode="&#58892;" d="M887.328 278.848 533.952 628.992c-0.512 0.512-1.216 0.672-1.76 1.152-0.128 0.128-0.16 0.32-0.288 0.448-12.576 12.416-32.832 12.352-45.28-0.192L136.512 277.056c-12.448-12.576-12.352-32.8 0.192-45.248 6.24-6.176 14.4-9.28 22.528-9.28 8.224 0 16.48 3.168 22.72 9.472l327.84 330.816 332.48-329.408c6.24-6.176 14.368-9.28 22.528-9.28 8.256 0 16.48 3.168 22.72 9.472C899.968 246.144 899.872 266.4 887.328 278.848z"  horiz-adv-x="1024" />

    
    <glyph glyph-name="info" unicode="&#58894;" d="M512-62.016C266.08-62.016 65.984 138.048 65.984 384 65.984 629.92 266.08 830.016 512 830.016c245.952 0 446.016-200.064 446.016-446.016C958.016 138.048 757.952-62.016 512-62.016zM512 766.016C301.344 766.016 129.984 594.656 129.984 384c0-210.624 171.36-382.016 382.016-382.016 210.624 0 382.016 171.36 382.016 382.016C894.016 594.656 722.624 766.016 512 766.016zM512 592m-48 0a1.5 1.5 0 1 0 96 0 1.5 1.5 0 1 0-96 0ZM512 128c-17.664 0-32 14.304-32 32l0 288c0 17.664 14.336 32 32 32s32-14.336 32-32l0-288C544 142.304 529.664 128 512 128z"  horiz-adv-x="1024" />

    
    <glyph glyph-name="xingxing" unicode="&#58969;" d="M998.261 496.436c-5.188 16.009-19.046 27.682-35.669 30.071l-274.125 39.834-122.607 248.422c-7.441 15.087-22.801 24.644-39.629 24.644s-32.188-9.557-39.629-24.644l-122.607-248.422-274.159-39.834c-16.657-2.423-30.481-14.063-35.669-30.071s-0.853-33.553 11.196-45.295l198.383-193.365-46.831-273.033c-2.833-16.589 3.959-33.348 17.579-43.247s31.642-11.196 46.558-3.345l245.214 128.922 245.18-128.922c6.451-3.379 13.517-5.086 20.548-5.086 9.148 0 18.295 2.833 25.975 8.431 13.619 9.899 20.412 26.658 17.579 43.247l-46.831 273.033 198.383 193.365c12.015 11.742 16.35 29.286 11.162 45.295z"  horiz-adv-x="1024" />

    
    <glyph glyph-name="suo" unicode="&#58923;" d="M836.06163 410.86397l-31.722492 0 0 27.629267c0 0.342808-0.01228 0.683569-0.025583 1.023306 0.013303 0.339738 0.025583 0.680499 0.025583 1.023306 0 79.540567-30.975479 154.320715-87.217411 210.56367-56.243979 56.243979-131.023102 87.218434-210.564693 87.218434-79.540567 0-154.319691-30.974455-210.56367-87.218434-56.243979-56.243979-87.218434-131.023102-87.218434-210.56367 0-0.342808 0.01228-0.683569 0.025583-1.023306-0.013303-0.339738-0.025583-0.680499-0.025583-1.023306l0-27.629267-27.629267 0c-36.676317 0-66.514903-29.838585-66.514903-66.514903l0-409.322479c0-36.676317 29.838585-66.514903 66.514903-66.514903l654.915967 0c36.676317 0 66.514903 29.838585 66.514903 66.514903l0 409.322479C902.576533 381.025385 872.737948 410.86397 836.06163 410.86397zM259.915681 439.516544c0.013303 0.339738 0.025583 0.680499 0.025583 1.023306 0 65.874313 25.65224 127.804804 72.232115 174.384679 46.579875 46.579875 108.510366 72.232115 174.383656 72.232115 65.874313 0 127.804804-25.65224 174.384679-72.232115 46.579875-46.579875 72.232115-108.510366 72.232115-174.384679 0-0.342808 0.01228-0.683569 0.025583-1.023306-0.013303-0.339738-0.025583-0.680499-0.025583-1.023306l0-27.629267-493.233588 0 0 27.629267C259.941264 438.837068 259.928984 439.176806 259.915681 439.516544zM851.411223-64.973412c0-8.463766-6.885827-15.349593-15.349593-15.349593l-654.915967 0c-8.463766 0-15.349593 6.885827-15.349593 15.349593l0 409.322479c0 8.463766 6.885827 15.349593 15.349593 15.349593l654.915967 0c8.463766 0 15.349593-6.885827 15.349593-15.349593L851.411223-64.973412zM508.603647 288.067226c-59.246359 0-107.447151-48.200792-107.447151-107.447151 0-33.027208 15.373129-64.138786 40.932248-84.350107l0-38.446637c0-36.676317 29.838585-66.514903 66.514903-66.514903l4.093225 0c36.676317 0 66.514903 29.838585 66.514903 66.514903l0 41.814338c23.287379 20.274766 36.839023 49.629327 36.839023 80.982406C616.050798 239.866435 567.851029 288.067226 508.603647 288.067226zM539.538193 133.610412l-11.490705-7.583722 0-68.203358c0-8.463766-6.885827-15.349593-15.349593-15.349593l-4.093225 0c-8.463766 0-15.349593 6.885827-15.349593 15.349593l0 66.664306-12.768815 7.389294c-17.371646 10.05296-28.163433 28.730345-28.163433 48.743144 0 31.033807 25.248034 56.281841 56.281841 56.281841 31.033807 0 56.281841-25.248034 56.281841-56.281841C564.885488 161.659235 555.410696 144.085998 539.538193 133.610412z"  horiz-adv-x="1024" />

    
    <glyph glyph-name="fanhui" unicode="&#58961;" d="M512 868.116c-267.343 0-484.116-216.694-484.116-484.155 0-267.343 216.694-484.076 484.116-484.076 267.343 0 484.116 216.694 484.116 484.076s-216.694 484.155-484.116 484.155zM512-57.108c-243.239 0-441.108 197.868-441.108 441.068 0 243.239 197.868 441.108 441.108 441.108s441.108-197.868 441.108-441.108c0-243.2-197.868-441.068-441.108-441.068zM606.366 114.176l-266.279 266.279 266.279 266.201 45.568-45.607-220.554-220.593 220.554-220.593z"  horiz-adv-x="1024" />

    
    <glyph glyph-name="hulve1" unicode="&#59027;" d="M512 831.419c-247.102 0-447.419-200.317-447.419-447.419s200.317-447.419 447.419-447.419 447.419 200.317 447.419 447.419-200.317 447.419-447.419 447.419zM512 11.151c-205.921 0-372.849 166.928-372.849 372.849 0 205.917 166.928 372.849 372.849 372.849 205.917 0 372.849-166.932 372.849-372.849 0-205.921-166.932-372.849-372.849-372.849zM288.291 458.568c-41.184 0-74.569-33.385-74.569-74.569 0-41.183 33.385-74.569 74.569-74.569s74.569 33.386 74.569 74.569c0 41.184-33.386 74.569-74.569 74.569zM512 458.568c-41.184 0-74.569-33.385-74.569-74.569 0-41.183 33.385-74.569 74.569-74.569s74.569 33.386 74.569 74.569c0 41.184-33.385 74.569-74.569 74.569zM735.709 458.568c-41.184 0-74.569-33.385-74.569-74.569 0-41.183 33.385-74.569 74.569-74.569s74.571 33.386 74.571 74.569c0 41.184-33.387 74.569-74.571 74.569z"  horiz-adv-x="1024" />

    
    <glyph glyph-name="delete" unicode="&#58981;" d="M534.579763 303.588735l213.128075 213.135238c9.039887 9.021467 9.039887 23.690562 0 32.715099-9.04091 9.054213-23.694655 9.054213-32.732495 0L501.848291 336.31816 291.046191 547.105934c-8.947789 8.968256-23.485901 8.968256-32.448016 0-8.967232-8.964162-8.967232-23.483854 0-32.443923l210.796984-210.798007L256.74599 91.223023c-9.038864-9.05626-9.038864-23.695678 0-32.745798 9.039887-9.025561 23.693632-9.025561 32.729425 0l212.650191 212.656331L712.930777 60.328385c8.944719-8.966209 23.484877-8.966209 32.444946 0 8.965186 8.964162 8.965186 23.51046 0 32.477692L534.579763 303.588735z"  horiz-adv-x="1024" />

    
    <glyph glyph-name="lingsheng" unicode="&#58987;" d="M909.948 114.364c-3.376-1.726-7.515-2.783-12.043-2.783h-183.269c-24.508-88.696-105.786-153.851-202.344-153.851-96.557 0-177.835 65.156-202.344 153.851h-183.267c-4.27 0-8.222 0.918-11.492 2.47-21.984-4.76-36.797-2.47-36.797-2.47v55.946c144.693 0 167.961 198.608 167.961 391.622 0 175.199 138.409 214.075 215.523 222.142-3.541 6.77-5.57 14.454-5.57 22.622 0 27.036 21.933 48.953 48.99 48.953 27.056 0 48.989-21.917 48.989-48.953 0-7.874-1.905-15.289-5.212-21.88 72.987-4.924 229.16-37.175 229.16-223.030 0-192.762 27.644-391.114 167.964-391.114v-55.873c0-0.001-14.567-2.252-36.249 2.346zM512.293 13.674c65.274 0 121.019 40.61 143.42 97.907h-286.842c22.403-57.297 78.15-97.907 143.421-97.907zM722.245 559.004c0 181.88-209.953 167.621-209.953 167.621v0.363c0 0-209.953 14.279-209.953-167.839 0-222.629-47.674-335.052-99.028-391.622h618.293c-51.48 56.379-99.359 168.661-99.359 391.477z"  horiz-adv-x="1024" />

    
    <glyph glyph-name="cart" unicode="&#58979;" d="M409.6-85.334c-56.474 0-102.4 45.926-102.4 102.4s45.926 102.4 102.4 102.4 102.4-45.926 102.4-102.4-45.926-102.4-102.4-102.4zM409.6 68.266c-28.211 0-51.2-22.989-51.2-51.2s22.989-51.2 51.2-51.2 51.2 22.989 51.2 51.2-22.989 51.2-51.2 51.2zM768-85.334c-56.474 0-102.4 45.926-102.4 102.4s45.926 102.4 102.4 102.4 102.4-45.926 102.4-102.4-45.926-102.4-102.4-102.4zM768 68.266c-28.211 0-51.2-22.989-51.2-51.2s22.989-51.2 51.2-51.2 51.2 22.989 51.2 51.2-22.989 51.2-51.2 51.2zM897.997 709.956c-12.851 15.206-32.256 23.91-53.197 23.91h-626.842l-5.069 30.515c-6.707 40.294-43.981 71.885-84.89 71.885h-51.2c-14.131 0-25.6-11.469-25.6-25.6s11.469-25.6 25.6-25.6h51.2c15.718 0 31.795-13.619 34.355-29.133l85.555-513.382c6.707-40.294 43.981-71.885 84.89-71.885h512c14.131 0 25.6 11.469 25.6 25.6s-11.469 25.6-25.6 25.6h-512c-15.718 0-31.795 13.619-34.355 29.133l-12.646 75.776 510.208 44.39c39.68 3.43 75.93 36.915 82.483 76.237l34.355 206.182c3.43 20.685-1.946 41.267-14.797 56.422zM862.31 661.982l-34.355-206.182c-2.714-16.179-20.019-32.205-36.403-33.638l-514.202-44.698-50.893 305.254h618.291c5.99 0 11.008-2.048 14.131-5.786s4.352-9.011 3.379-14.899z"  horiz-adv-x="1024" />

    
    <glyph glyph-name="dianzan2" unicode="&#58916;" d="M241.371 330.418c12.051 0 21.805 9.769 21.805 21.796 0 12.043-9.754 21.821-21.805 21.821-0.223 0-0.406-0.125-0.613-0.125l-52.117-0.121c-1.192 0.16-2.422 0.246-3.649 0.246-16.406 0-29.707-13.461-29.707-30.121L155-17.461c0-16.641 13.316-29.684 29.746-29.684 1.602 0 3.176-0.246 4.711 0l50.895-0.023c0.082 0 0.121-0.039 0.207-0.039 0.078 0 0.121 0.039 0.203 0.039l0.613 0 0 0.125c11.187 0.449 20.16 9.527 20.16 20.816 0 11.309-8.973 20.383-20.16 20.836l0 0.324-42.488 0 1.207 335.484L241.371 330.417 241.371 330.418 241.371 330.418zM855.445 361.656c-16.086 26.222-39.48 36.84-67.797 37.984-1.473 0.207-2.945 0.332-4.484 0.332l-171.332 0.574c11.223 32.571 18.93 71.375 18.93 107.844 0 23.641-2.664 46.668-7.543 68.836l-0.406-0.039C613.938 616.031 579.664 645 538.609 645c-47.757 0-79.617-40.157-79.617-88.508 0-2.703-0.242-5.324 0-7.949-2.5-90.387-76.09-163.075-163.652-173.051l0-45.774-0.656-185.327 0-191.598 8.929 0 417-0.188 7.301 0.203c16.141-0.039 25.215 4.02 39.863 13.441 13.914 8.977 24.383 21.266 31.266 35.156 1.887 2.789 3.359 5.898 4.258 9.34l64.23 287.156c0.879 3.378 1.125 6.82 0.879 10.141C869.723 326.218 865.668 344.98 855.445 361.656L855.445 361.656 855.445 361.656zM828.176 317.55l-69.207-306.714-0.078 0.039c-2.137-5.121-5.738-9.668-10.734-12.867-3.488-2.27-7.32-3.625-11.191-4.141-1.25 0.164-2.543 0-3.852 0l-397.82 0.453-0.148 339.762c74.496 33.582 129.132 66.441 157.285 144.824 0.062-0.02 0.105-0.039 0.164-0.059 2.5 7.621 5.265 17.293 7.25 27.656 4.633 24.344 4.386 48.473 4.386 48.473-4.117 31.672 21.637 44.172 37 44.172 21.102-0.719 41.918-28.066 41.918-43.637 0 0 4.668-22.988 4.711-47.695 0.039-31.16-3.895-47.406-3.895-47.406l-0.387 0c-4.898-25.754-13.523-50.153-25.41-72.528l0.309-0.289c-1.965-4.015-3.094-8.523-3.094-13.293 0-16.617 15.922-18.136 32.328-18.136l199.121-0.223c0 0 12.227-0.387 12.25-0.387l0-0.086c10.117 0.535 20.199-4.34 25.938-13.683 4.59-7.52 5.367-16.352 2.906-24.172L828.176 317.55 828.176 317.55 828.176 317.55zM303.613-47.291c0.27-0.021 0.371-0.021 0.25 0.021 0.203 0.039 0.305 0.063-0.25 0.063-0.547 0-0.445-0.023-0.222-0.063C303.289-47.313 303.371-47.313 303.613-47.291L303.613-47.291 303.613-47.291zM303.613-47.291"  horiz-adv-x="1024" />

    
    <glyph glyph-name="weixinzhifu" unicode="&#58901;" d="M390.21952 264.90752c-61.26464-34.01984-70.35136 19.09888-70.35136 19.09888l-76.78208 178.46656c-29.54368 84.80512 25.56928 38.23744 25.56928 38.23744s47.2896-35.63392 83.17952-57.34784c35.87072-21.71392 76.75776-6.3744 76.75776-6.3744l501.9648 230.7776C837.94688 782.5472 684.96256 857.6 511.76576 857.6 229.11104 857.6 0 657.86752 0 411.47136c0-141.72544 75.8656-267.8656 194.0352-349.62176l-21.31072-122.01856c0 0-10.38848-35.6224 25.61536-19.10016 24.53376 11.26528 87.0784 51.63392 124.30976 76.20224 58.53056-20.31616 122.2976-31.5968 189.14432-31.5968 282.63168 0 511.79008 199.73248 511.79008 446.13376 0 71.36896-19.31008 138.76864-53.51552 198.59456C810.14144 514.2208 438.15808 291.48288 390.21952 264.90752L390.21952 264.90752 390.21952 264.90752zM390.21952 264.90752"  horiz-adv-x="1024" />

    
    <glyph glyph-name="16" unicode="&#58932;" d="M512 771.772c-267.179 0-483.772-216.593-483.772-483.772s216.593-483.772 483.772-483.772c267.179 0 483.772 216.593 483.772 483.772 0 267.179-216.593 483.772-483.772 483.772zM512-149.333c-241.527 0-437.333 195.806-437.333 437.333s195.806 437.333 437.333 437.333 437.333-195.806 437.333-437.333-195.806-437.333-437.333-437.333zM527.531 54.852h-24.183v39.936c-29.781 1.758-54.391 9.984-73.813 24.695-19.456 14.711-32.324 36.779-38.639 66.202-0.7 4.557-1.229 8.926-1.57 13.141-0.358 4.215-0.717 8.414-1.058 12.612h34.15c0-11.913 1.911-23.040 5.786-33.382 3.857-10.325 9.37-19.439 16.555-27.324 7.168-7.868 15.667-14.268 25.481-19.166 9.796-4.915 20.668-7.714 32.58-8.414v156.075c-14.37 3.499-27.955 7.612-40.738 12.356-12.783 4.727-23.893 10.854-33.365 18.398-9.455 7.526-16.896 16.896-22.34 28.109-5.427 11.213-8.141 25.037-8.141 41.523 0 14.711 2.799 28.023 8.397 39.936 5.598 11.913 13.21 22.067 22.869 30.481 9.609 8.414 20.753 14.797 33.365 19.183 12.595 4.369 26.078 6.383 40.448 6.042v32.051h24.183v-32.051c14.353 0 27.665-2.014 39.936-6.042 12.254-4.028 22.938-9.984 32.051-17.869 9.097-7.885 16.282-17.596 21.555-29.167 5.257-11.554 8.209-24.695 8.926-39.407h-34.167c0 9.455-1.826 18.125-5.513 26.010-3.669 7.885-8.585 14.626-14.711 20.224-6.127 5.598-13.312 9.984-21.538 13.141-8.226 3.157-17.084 4.727-26.539 4.727v-139.776c17.152-4.215 32.751-8.755 46.763-13.67 13.995-4.915 25.907-11.383 35.738-19.439 9.796-8.055 17.425-18.483 22.852-31.266 5.427-12.8 8.158-29.15 8.158-49.118 0-15.428-3.328-29.167-9.984-41.25-6.673-12.083-15.326-22.34-26.010-30.737-10.684-8.414-22.852-14.882-36.523-19.439-13.67-4.557-27.324-7.014-40.977-7.356l-0-39.97zM502.835 446.857c-9.813 0-19.012-1.57-27.597-4.727-8.585-3.157-16.111-7.612-22.579-13.397-6.485-5.769-11.571-12.698-15.258-20.753-3.669-8.073-5.513-16.998-5.513-26.795 0-11.554 1.843-21.197 5.513-28.894 3.686-7.714 8.772-14.114 15.258-19.183 6.468-5.086 13.995-9.199 22.579-12.356 8.585-3.157 17.783-6.127 27.597-8.943v135.049zM527.531 123.17c10.854 0 21.094 1.929 30.737 5.786 9.626 3.857 18.142 9.097 25.481 15.753 7.356 6.656 13.141 14.626 17.357 23.91 4.198 9.284 6.298 19.524 6.298 30.737 0 12.954-2.099 23.74-6.298 32.324-4.215 8.585-9.916 15.582-17.084 21.009-7.185 5.427-15.599 9.728-25.207 12.868-9.66 3.157-20.070 5.956-31.266 8.414l-0-150.801z"  horiz-adv-x="1024" />

    
    <glyph glyph-name="icon33" unicode="&#58992;" d="M512 778.008299C248.564315 778.008299 33.991701 563.435685 33.991701 300c0-263.435685 214.572614-478.008299 478.008299-478.008299 263.435685 0 478.008299 214.572614 478.008299 478.008299C990.008299 563.435685 775.435685 778.008299 512 778.008299zM769.062241 274.506224 480.13278 274.506224l0 337.792531c0 19.120332 12.746888 33.991701 29.742739 33.991701 14.871369 0 29.742739-14.871369 29.742739-33.991701l0-269.809129 0 0 231.568465 0c16.995851 0 29.742739-14.871369 29.742739-33.991701C798.804979 289.377593 786.058091 274.506224 769.062241 274.506224z"  horiz-adv-x="1024" />

    
    <glyph glyph-name="shouji" unicode="&#58925;" d="M527.271086-42.835741c15.40752 0 27.883967 10.242145 27.883967 22.898826 0 12.635536-12.47846 22.897819-27.883967 22.897819-15.40752 0-27.884974-10.262283-27.884974-22.897819C499.386112-32.593597 511.863566-42.835741 527.271086-42.835741M750.307581 896 304.235598 896c-61.584771 0-111.517744-41.011875-111.517744-91.594296l0-824.34262c0-50.604572 49.933979-91.594296 111.517744-91.594296l446.071983 0c61.583765 0 111.517744 40.989724 111.517744 91.594296L861.825325 804.406711C861.825325 854.988125 811.891346 896 750.307581 896M806.05437-19.935909c0-25.315376-24.979072-45.795638-55.746789-45.795638L304.235598-65.731546c-30.815041 0-55.747796 20.482276-55.747796 45.795638l0 45.794631 557.568582 0L806.05437-19.935909 806.05437-19.935909zM806.05437 71.65738 248.486795 71.65738 248.486795 712.812415l557.568582 0L806.055377 71.65738zM806.05437 758.610067 248.486795 758.610067 248.486795 804.406711c0 25.269059 24.933762 45.796644 55.747796 45.796644l446.071983 0c30.769731 0 55.746789-20.528593 55.746789-45.796644L806.05437 758.610067 806.05437 758.610067zM555.15606 827.30453 499.385105 827.30453c-15.406514 0-27.862822-10.241138-27.862822-22.898826 0-12.656681 12.456309-22.897819 27.862822-22.897819l55.770955 0c15.40752 0 27.862822 10.241138 27.862822 22.897819C583.018882 817.063392 570.562574 827.30453 555.15606 827.30453"  horiz-adv-x="1024" />

    
    <glyph glyph-name="huodaofukuan" unicode="&#58933;" d="M839.977853 220.429587C791.854738 184.552634 650.529771 113.336546 607.105038 111.08531 478.375002 112.156194 343.98619 209.817536 342.752747 210.750394 337.74365 214.872102 331.686282 217.294677 325.235029 217.757933L174.652962 228.661901 175.652584 350.14285C205.564365 361.294309 280.360296 385.634286 363.040219 385.637459L366.58833 385.616835C386.598042 385.445493 405.95337 383.892317 424.125472 380.998554 433.763904 378.117482 447.399258 375.131702 452.552728 374.003706 493.527835 365.068576 544.42855 353.96947 647.019322 252.170555 638.534301 249.903456 629.489051 248.79767 619.489686 248.79767 557.229054 249.310109 493.862088 299.527374 491.202182 301.658034 485.737998 306.073245 478.99957 308.440291 471.689928 308.505338 462.166051 308.505338 453.282437 304.167866 447.311379 296.598707 436.646646 282.959627 438.849896 263.087214 452.220043 252.303821 491.227291 220.757992 555.80259 186.854635 620.079731 186.310467L621.652136 186.310467C665.52097 186.310467 703.079784 201.92156 733.285019 232.704285 744.288712 238.812283 756.941706 241.782198 771.967429 241.782198 784.545096 241.669557 795.768488 239.20732 802.987112 237.155984 819.935186 232.47107 832.137798 225.793522 839.977853 220.429587M836.054686 290.633493C780.978154 320.389758 708.239531 280.702046 708.00728 280.72743 591.881589 437.790246 437.010715 442.505304 381.198197 448.027886L381.19035 448.027886 362.674581 448.340426C237.677827 448.340426 132.736294 400.823371 131.733533 400.35377 120.667069 395.307134 113.462568 384.123944 113.379397 371.869872L112.001581 199.538646C111.836808 182.909026 124.569833 168.979618 140.984357 167.82465L311.370563 155.508704C328.76117 142.753299 461.243323 49.243811 608.194109 48L608.520517 48 608.583288 48.003173C643.872944 49.813362 709.63461 66.095541 778.831398 106.022811 791.270971 113.211211 823.528805 132.23961 854.342914 153.654094 884.388083 174.537102 902.349902 190.306843 907.74504 200.557176 909.993798 204.981904 913.450891 214.212122 911.346506 226.326582L910.404946 228.647622 910.100509 229.163232C888.519962 257.339349 863.621984 278.005008 836.054686 290.633493M806.071846 547.398632C822.907701 547.398632 836.556917 561.253774 836.556917 578.34363 836.556917 595.433488 822.907701 609.28863 806.071846 609.28863L759.409302 609.28863 813.53845 664.24249C825.442909 676.328568 825.441917 695.921322 813.53547 708.006394 801.629024 720.090456 782.326482 720.08844 770.422021 708.00337L712.10129 648.795694 653.763675 708.002362C641.85723 720.085416 622.554686 720.084408 610.651219 707.99833 598.747752 695.91225 598.749739 676.318488 610.655192 664.235434L664.795261 609.290646 618.137683 609.290646C601.301829 609.290646 587.652613 595.435504 587.652613 578.345646 587.652613 561.25579 601.301829 547.400648 618.137683 547.400648L681.619198 547.400648 681.619198 520.283075 618.137683 520.283075C601.301829 520.283075 587.652613 506.427933 587.652613 489.338075 587.652613 472.248219 601.301829 458.393077 618.137683 458.393077L681.619198 458.393077 681.619198 415.198701C681.619198 398.108843 695.268414 384.253701 712.104269 384.253701 728.940122 384.253701 742.589338 398.108843 742.589338 415.198701L742.589338 458.393077 806.070854 458.393077C822.906707 458.393077 836.555923 472.248219 836.555923 489.338075 836.555923 506.427933 822.906707 520.283075 806.070854 520.283075L742.589338 520.283075 742.589338 547.400648 806.070854 547.400648 806.071846 547.398632Z"  horiz-adv-x="1024" />

    
    <glyph glyph-name="dingwei" unicode="&#58935;" d="M995.499 385.081c-0.597 266.183-216.235 481.82-482.418 482.418-0.199 0-0.37 0.057-0.54 0.057h-1.081c-0.171 0-0.341-0.057-0.54-0.057-266.183-0.597-481.82-216.235-482.418-482.418 0-0.199-0.057-0.37-0.057-0.54v-1.081c0-0.171 0.057-0.341 0.057-0.54 0.597-266.183 216.235-481.82 482.418-482.418 0.199 0 0.37-0.057 0.54-0.057h1.081c0.171 0 0.341 0.057 0.54 0.057 266.183 0.597 481.82 216.235 482.418 482.418 0 0.199 0.057 0.37 0.057 0.54v1.081c0 0.171-0.057 0.341-0.057 0.54zM558.052-28.587v159.716c0 25.316-20.366 45.625-45.511 45.625h-1.081c-25.060 0-45.511-20.423-45.511-45.625v-159.716c-192.228 21.333-345.202 174.308-366.535 366.535h159.716c25.316 0 45.625 20.366 45.625 45.511v1.081c0 25.060-20.423 45.511-45.625 45.511h-159.716c21.333 192.228 174.308 345.202 366.535 366.535v-159.716c0-25.316 20.366-45.625 45.511-45.625h1.081c25.060 0 45.511 20.423 45.511 45.625v159.716c192.228-21.333 345.202-174.308 366.535-366.535l-159.716 0c-25.316 0-45.625-20.366-45.625-45.511v-1.081c0-25.060 20.423-45.511 45.625-45.511h159.716c-21.333-192.228-174.308-345.202-366.535-366.535z"  horiz-adv-x="1024" />

    
    <glyph glyph-name="qqkongjian" unicode="&#58957;" d="M870.4 896 153.6 896C66.56 896 0 829.44 0 742.4l0-716.8c0-87.04 66.56-153.6 153.6-153.6l716.8 0c87.04 0 153.6 66.56 153.6 153.6L1024 742.4C1024 829.44 957.44 896 870.4 896zM860.16 440.32c-35.84-40.96-158.72-163.84-158.72-163.84s5.12-10.24 5.12-20.48l0-5.12c-81.92 5.12-163.84 5.12-230.4 20.48C563.2 332.8 614.4 363.52 711.68 445.44c-102.4 25.6-343.04 25.6-409.6-5.12C409.6 435.2 496.64 430.08 583.68 419.84c-40.96-40.96-148.48-112.64-235.52-179.2 102.4-20.48 245.76-15.36 368.64 5.12l40.96 10.24c-5.12-10.24-30.72-15.36-40.96-20.48 10.24-56.32 25.6-148.48 30.72-184.32 5.12-20.48-15.36-35.84-30.72-25.6-51.2 25.6-199.68 107.52-199.68 107.52S368.64 51.2 317.44 25.6c-15.36-5.12-35.84 5.12-30.72 25.6C291.84 107.52 322.56 281.6 322.56 281.6S199.68 404.48 158.72 445.44C148.48 460.8 153.6 481.28 174.08 486.4c51.2 5.12 225.28 35.84 225.28 35.84s71.68 158.72 97.28 209.92c5.12 15.36 25.6 15.36 35.84 0 20.48-51.2 97.28-209.92 97.28-209.92s163.84-25.6 220.16-35.84C870.4 481.28 875.52 460.8 860.16 440.32z"  horiz-adv-x="1024" />

    
    <glyph glyph-name="lianxikefu" unicode="&#58975;" d="M805.597293 440.749492l0 70.047356-0.774643 0C794.715455 662.792611 668.028101 787.532613 513.93456 787.532613c-154.094564 0-280.778848-124.738979-290.886043-276.735765l-0.568958 0 0-11.858072c-0.066515-2.567475-0.103354-5.142114-0.103354-7.722892l0.103354 0 0-50.230008c-82.7077-9.219989-141.446499-62.512752-141.446499-155.807578 0-109.629863 77.396741-160.562882 168.012551-160.562882l25.944905 0L274.990516 389.294586l0.104377 0 0 101.842503 0.051165 0c0 135.340431 103.524818 243.572458 238.787478 243.572458 135.289266 0 237.959623-108.232027 237.959623-243.572458l0.25992 0 0-48.710398-0.077771 0 0-317.814346 18.470677 0c90.614787 0 167.209256 68.317968 167.209256 158.907173C937.756265 380.229117 882.28079 431.171346 805.597293 440.749492zM222.377228 178.056558c-47.285956 10.864442-80.500429 55.797817-80.500429 107.947548 0 52.150754 33.214473 93.771687 80.500429 104.636129L222.377228 178.056558zM805.493939 177.228703 805.493939 389.294586l0.103354 0 0 0.87902c47.254234-10.904351 78.534658-54.541197 78.534658-106.653065C884.131951 231.371834 852.806501 188.094168 805.493939 177.228703zM778.824533 44.83744l-82.84687 0c-11.286044 31.407314-41.834804 54.710043-76.473719 54.710043-43.820018 0-80.294744-37.275975-80.294744-81.095993s36.474726-80.268138 80.294744-80.268138c34.786271 0 65.444525 22.980387 76.613912 54.375421l82.706677 0 0-1.655709c45.294602 0 82.415035 35.205826 82.415035 80.501452l-55.590086 0C805.649482 53.114964 792.015973 44.83744 778.824533 44.83744zM619.916337-7.778918c-14.691607 0-26.670429 11.770068-26.670429 26.25599 0 14.484899 11.977799 26.25599 26.670429 26.25599 14.745842 0 26.696012-11.771091 26.696012-26.25599C646.612349 3.99115 634.662179-7.778918 619.916337-7.778918z"  horiz-adv-x="1024" />

    
    <glyph glyph-name="bianji" unicode="&#58934;" d="M319.183568 328.759351C318.519351 327.87373 317.855135 326.960432 317.550703 325.853405L266.018595 130.546162C263.029622 119.171459 266.101622 106.911135 274.23827 98.276324 280.326919 92.132324 288.352865 88.755892 296.904649 88.755892 299.727568 88.755892 302.550486 89.088 305.318054 89.862919L492.876108 142.751135C493.180541 142.751135 493.318919 142.474378 493.540324 142.474378 495.699027 142.474378 497.830054 143.276973 499.407568 144.992865L1000.946162 663.441297C1015.835676 678.856649 1024 699.862486 1024 722.722595 1024 748.627027 1013.372541 774.503784 994.774486 793.710703L947.421405 842.752C928.823351 861.986595 903.749189 873.001514 878.730378 873.001514 856.617514 873.001514 836.303568 864.560432 821.358703 849.172757L319.930811 330.55827C319.404973 330.060108 319.543351 329.340541 319.183568 328.759351M951.849514 714.226162 902.033297 662.749405 821.303351 747.575351 870.4 798.332541C878.149189 806.413838 893.204757 805.223784 902.116324 795.980108L949.524757 746.938811C954.451027 741.818811 957.273946 735.03827 957.273946 728.313081 957.24627 722.805622 955.364324 717.796324 951.849514 714.226162M408.354595 320.622703 770.24173 694.797838 851.054703 609.916541 489.831784 236.460973 408.354595 320.622703 408.354595 320.622703 408.354595 320.622703ZM342.431135 168.904649 368.584649 268.149622 438.355027 196.026811 342.431135 168.904649 342.431135 168.904649 342.431135 168.904649ZM983.621189 508.761946C964.635676 508.761946 949.081946 492.793081 948.998919 472.89427L948.998919-10.461405C948.998919-35.812324 929.100108-56.403027 904.551784-56.403027L113.691676-56.403027C89.171027-56.403027 69.189189-35.812324 69.189189-10.461405L69.189189 778.489081C69.189189 803.867676 89.171027 824.458378 113.691676 824.458378L623.034811 824.458378C642.131027 824.458378 657.629405 840.51027 657.629405 860.243027 657.629405 879.948108 642.131027 896 623.034811 896L108.405622 896C48.653838 896 0 845.740973 0 783.913514L0-15.941189C0-77.768649 48.653838-128 108.405622-128L909.782486-128C969.589622-128 1018.188108-77.768649 1018.188108-15.941189L1018.188108 473.143351C1018.132757 492.793081 1002.606703 508.761946 983.621189 508.761946"  horiz-adv-x="1024" />

    
    <glyph glyph-name="caidan" unicode="&#58904;" d="M133.310936 599.447673l757.206115 0c19.781623 0 35.950949 16.169326 35.950949 35.950949 0 19.781623-15.997312 35.950949-35.950949 35.950949L133.310936 671.349572c-19.781623 0-35.950949-16.169326-35.950949-35.950949C97.359987 615.617 113.529313 599.447673 133.310936 599.447673zM890.51705 419.864942 133.310936 419.864942c-19.781623 0-35.950949-16.169326-35.950949-35.950949 0-19.781623 16.169326-35.950949 35.950949-35.950949l757.206115 0c19.781623 0 35.950949 16.169326 35.950949 35.950949C926.467999 403.695616 910.298673 419.864942 890.51705 419.864942zM890.51705 168.552327 133.310936 168.552327c-19.781623 0-35.950949-15.997312-35.950949-35.950949s16.169326-35.950949 35.950949-35.950949l757.206115 0c19.781623 0 35.950949 15.997312 35.950949 35.950949S910.298673 168.552327 890.51705 168.552327z"  horiz-adv-x="1024" />

    
    <glyph glyph-name="zhifubao" unicode="&#58905;" d="M355.532389 351.233736c67.515696 0 118.468159-27.773554 170.950464-48.939619-55.257511-67.231217-110.615307-119.622448-170.950464-119.622448-53.345975 0-141.748375 18.198477-141.748375 83.229586C213.881229 322.503391 292.12936 351.233736 355.532389 351.233736L355.532389 351.233736zM893.198955 700.421626l0-631.141494c0-36.874839-30.166043-67.041906-67.041906-67.041906L195.015555 2.238226c-36.874839 0-67.041906 30.167067-67.041906 67.041906L127.97365 700.421626c0 36.874839 30.167067 67.041906 67.041906 67.041906l631.141494 0C863.032912 767.463532 893.198955 737.296465 893.198955 700.421626L893.198955 700.421626zM892.914476 254.409526c-53.346999 12.354376-155.536402 49.418526-252.842589 83.321684 21.070898 36.392862 38.598086 77.287247 51.237965 122.395608l2.39249 8.908904c2.39863 9.096169 4.599761 21.643949 6.611581 31.030737L548.035728 500.066459l0 38.501896 191.447287 0 0 38.116109L548.127825 576.684464l0 77.098959-76.901461 0 0-77.098959L279.967366 576.684464l0-38.116109 191.257975 0 0-38.501896L318.27688 500.066459l0-38.119179 285.591457 0c-6.703679-34.573423-19.536962-69.340251-36.296671-99.508341-13.311167 4.406356-134.466528 40.031738-213.477023 40.031738-63.21167 0-168.084183-48.361451-168.084183-136.569422 0-86.964654 60.33925-135.904273 168.084183-135.904273 103.434767 0 179.574888 51.719942 241.153362 143.374408 117.226888-51.048653 226.119971-107.36324 297.665447-139.639341L892.913453 254.409526 892.914476 254.409526zM892.914476 254.409526"  horiz-adv-x="1024" />

    
    <glyph glyph-name="dizhi" unicode="&#58906;" d="M511.998977 830.709995c-173.638689 0-314.904063-138.294716-314.904063-308.281225 0-77.603449 31.020504-185.005574 85.10633-294.67023 53.746088-108.971877 124.852566-209.287607 195.185424-275.377838 8.955976-9.602705 21.51092-15.08865 34.612309-15.08865 12.913101 0 25.359574 5.358031 34.296107 14.736633 149.549038 140.014894 280.608979 406.358985 280.608979 570.401108C826.904063 692.415278 685.637666 830.709995 511.998977 830.709995zM517.467525-18.127613l-1.128707-1.13894c-0.816598-0.8913-2.232854-1.952468-4.339842-1.952468-2.245134 0-3.695159 1.251503-4.361331 1.997494l-1.294482 1.327228C366.207519 113.420445 238.584863 370.958986 238.584863 522.427746c0 147.109476 122.652458 266.791276 273.414113 266.791276 150.761656 0 273.415137-119.6818 273.415137-266.791276C785.414113 370.516918 657.700383 112.869906 517.467525-18.127613zM513.044796 714.383616c-91.091648 0-165.199483-74.112951-165.199483-165.210739 0-91.076298 74.107835-165.172877 165.199483-165.172877 91.083461 0 165.184133 74.096579 165.184133 165.172877C678.228929 640.270664 604.128257 714.383616 513.044796 714.383616zM513.044796 425.48995c-68.213591 0-123.709533 55.484685-123.709533 123.682927 0 68.219731 55.495942 123.720789 123.709533 123.720789 68.205405 0 123.694183-55.501058 123.694183-123.720789C636.738979 480.974635 581.2502 425.48995 513.044796 425.48995z"  horiz-adv-x="1024" />

    
    <glyph glyph-name="microblog" unicode="&#58954;" d="M428.569 429.011c-143.596-6.624-259.687-83.564-259.687-179.508 0-95.804 116.092-167.85 259.687-161.143 143.712 6.574 260.047 96.505 260.047 192.342 0 95.694-116.341 154.932-260.047 148.308v0zM526.412 187.662c-43.985-56.749-130.999-84.452-215.485-38.69-40.212 21.804-38.745 64.66-38.745 64.66s-16.692 135.284 127.742 152.197c144.653 16.775 170.467-121.36 126.487-178.167v0zM429.546 278.271c-9.251-6.713-11.14-19.515-6.123-27.51 4.839-8.191 16.076-9.141 25.187-2.317 8.951 7.074 12.413 19.343 7.58 27.533-4.839 7.966-15.935 10.26-26.644 2.293v0zM361.079 259.65c-26.989-2.795-46.281-26.276-46.281-48.78 0-22.537 21.722-38.106 48.687-34.95 26.866 3.078 48.731 23.82 48.731 46.297 0 22.559-20.16 40.401-51.136 37.434v0zM866.672 893.925h-709.338c-85.759 0-155.269-69.499-155.269-155.269v-709.309c0-85.769 69.51-155.269 155.269-155.269h709.338c85.759 0 155.259 69.499 155.259 155.269v709.309c0 85.769-69.501 155.269-155.259 155.269v0zM816.981 217.071c-59.238-125.742-254.459-186.941-399.121-175.618-137.49 10.819-314.257 56.527-332.526 222.898 0 0-9.663 75.34 63.405 172.849 0 0 105.072 146.746 227.438 188.626 122.503 41.651 136.788-28.849 136.788-70.534-6.495-35.366-18.703-56.165 27.27-41.879 0 0 120.442 55.827 169.961 6.318 40.006-40.006 6.602-95.054 6.602-95.054s-16.554-18.337 17.568-24.939c34.218-6.844 141.779-56.691 82.614-182.668v0zM698.251 564.516c-13.114 0-23.637 10.596-23.637 23.628 0 13.218 10.524 23.842 23.637 23.842 0 0 147.623 27.26 129.954-131.338 0-0.922-0.116-1.649-0.322-2.49-1.673-11.234-11.548-19.875-23.175-19.875-13.152 0-23.843 10.512-23.843 23.654-0.005-0.006 23.381 105.975-82.612 82.578v0zM947.746 437.679h-0.177c-3.889-26.809-17.207-28.965-33.087-28.965-18.97 0-34.345 11.913-34.345 30.921 0 16.437 6.817 33.156 6.817 33.156 2.044 6.934 18.086 49.985-10.596 114.34-52.459 88.175-158.187 89.458-170.656 84.403-12.595-4.896-31.189-7.407-31.189-7.407-19.092 0-34.4 15.54-34.4 34.439 0 15.852 10.596 29.271 25.049 33.382 0 0 0.323 0.527 0.85 0.639 1.038 0.228 2.1 1.262 3.245 1.345 14.735 2.851 67.205 13.14 118.213 1.2 91.31-21.333 216.636-109.59 160.276-297.455v0z"  horiz-adv-x="1024" />

    
    <glyph glyph-name="tehui" unicode="&#58994;" d="M526.12096 431.44192l141.24032 0 0-40.10496-141.24032 0 0 40.10496ZM360.61696 431.44192l132.72064 0 0-40.10496-132.72064 0 0 40.10496ZM360.61696 498.10944l132.72064 0 0-38.96832-132.72064 0 0 38.96832ZM511.96928 831.98976c-384.19968 0.9472-447.3344-64.26112-447.96416-448-0.62976-383.744 63.93856-447.82592 447.9744-447.98976s446.2848 65.91488 447.98976 447.98976C961.66912 766.06976 896.17408 831.04256 511.96928 831.98976zM292.23424 136.00256l-28.24704 22.60992c31.67744 30.48448 47.488 54.22592 67.82976 101.10464l29.9008-16.38912C339.72224 194.7648 322.19648 167.6544 292.23424 136.00256zM526.12096 132.04992c-62.68416 0-92.09856 2.26816-106.74176 8.48896-9.62048 4.5056-14.1568 14.12608-14.1568 30.48448l0 47.45728c0 19.21024-0.55296 30.5152-3.36896 44.63616l40.68352 0c-2.26816-13.57312-2.87744-22.02624-2.87744-40.68864l0-44.61056c0-12.43648 9.62048-14.12096 85.35552-14.12096 50.24768 0 73.40544 2.26816 82.41664 8.45312 8.51968 5.08928 11.33568 15.2576 12.98944 46.32576 10.78784-6.77376 20.95616-11.30496 35.60448-14.12608C646.46656 136.00256 639.11424 132.04992 526.12096 132.04992zM472.448 263.66976l24.32512 18.65728c30.45376-23.16288 46.8736-36.736 73.40544-63.85152l-25.984-21.44768C519.3216 225.83296 504.6784 239.37536 472.448 263.66976zM730.05056 141.08672c-27.6992 44.0576-50.30912 72.88832-82.47808 105.64096l27.6992 16.94208c35.53792-35.0208 58.14784-62.1312 83.57888-101.68832L730.05056 141.08672zM760.0128 556.84096c-16.9728 2.26816-33.3312 3.39968-57.66144 3.39968l-176.22528 0 0-33.88416 112.99328 0c34.99008 0 48.59392 0.55296 63.79008 3.36896-1.65376-16.94208-2.20672-25.97888-2.20672-58.17856l0-52.51072c0-32.78336 0.55296-41.82016 2.20672-58.20928-14.09024 2.26816-31.616 2.85184-62.68416 2.85184l-114.09408 0 0-39.552c37.86752 1.13152 79.65696 2.816 123.71456 5.08928-5.63712 5.08416-11.88864 10.16832-27.14624 20.89472l26.59328 12.98944c36.70528-25.43104 60.416-45.18912 93.19936-77.3888l-24.87808-22.02624c-16.3584 18.07872-20.89472 22.60992-39.52128 40.10496-82.47808-6.2208-168.32512-10.17344-352.51712-16.3584-16.91136-0.58368-29.35296-1.13152-42.3424-2.84672l-6.79936 37.86752c21.50912-1.7152 38.42048-2.26816 68.93568-2.26816 17.52576 0 66.66752 1.13152 147.98336 2.82112l0 40.68864L389.41696 363.69408c-35.59936 0-49.69472-0.58368-64.39936-2.85184 1.7152 16.38912 2.26816 26.56256 2.26816 58.2144l0 50.82624c0 32.75264-0.55296 42.92096-2.26816 59.86304 13.5424-2.816 28.8-3.36896 62.68416-3.36896l105.64096 0 0 33.88416L326.17984 560.26112c-24.32512 0-41.85088-1.13152-56.49408-3.39968l0 38.42048c16.3584-2.82112 31.616-3.95264 56.49408-3.95264l167.15776 0c0 16.39424-1.1008 30.5152-3.92192 44.64128l40.6272 0c-2.816-14.12608-3.36896-27.14624-3.92192-44.64128l176.22528 0c27.14624 0 43.50464 1.13152 57.66144 3.95264L760.00768 556.84096zM526.12096 498.10944l141.24032 0 0-38.96832-141.24032 0 0 38.96832Z"  horiz-adv-x="1024" />

    
    <glyph glyph-name="shouye" unicode="&#58963;" d="M885.774 418.698c-0.762 0.991-1.588 1.93-2.472 2.814l-329.587 329.558c-1.182 1.183-2.465 2.26-3.833 3.221-3.123 2.195-19.731 13.141-40.049 13.141-20.325 0-36.945-10.934-40.071-13.126-1.377-0.966-2.668-2.049-3.857-3.239l-329.568-329.578c-0.879-0.879-1.701-1.813-2.459-2.798-1.755-2.277-17.15-23.129-17.15-53.885 0-29.896 22.142-49.972 42.716-55.975 2.639-0.77 5.374-1.16 8.124-1.16h43.338v-230.463c-0.191-7.456 0.073-49.804 28.808-79.677 17.288-17.972 41.387-27.473 69.691-27.473h116.926c16.020 0 29.008 12.987 29.008 29.008v247.48c0.118 1.192 0.709 4.165 2.365 6.421 3.166 4.315 10.912 5.221 16.85 5.221h70.533c5.936 0 13.676-0.907 16.847-5.224 1.658-2.259 2.251-5.233 2.37-6.429v-247.468c0-16.020 12.987-29.008 29.008-29.008h116.905c28.314 0 52.42 9.501 69.711 27.479 28.736 29.872 29 72.216 28.809 79.671v230.472h43.319c2.743 0 5.472 0.389 8.105 1.155 20.592 5.991 42.754 26.063 42.754 55.97 0.001 30.746-15.384 51.614-17.138 53.891zM779.729 365.696c-16.020 0-29.008-12.987-29.008-29.008v-259.92c0-0.376 0.007-0.75 0.021-1.127 0.194-5.026-1.375-26.192-12.628-37.888-6.267-6.514-15.393-9.682-27.9-9.682h-87.898v219.080c0 3.018-0.491 18.885-10.186 34.985-7.66 12.722-26.558 34.065-67.046 34.065h-70.533c-40.501 0-59.397-21.346-67.055-34.071-9.693-16.104-10.176-31.975-10.174-34.98v-219.080h-87.919c-12.402 0-21.47 3.112-27.723 9.513-10.886 11.145-12.912 31.178-12.78 38.142 0.023 0.447 0.017 0.55 0.017 1.042v259.91c0 16.020-12.987 29.008-29.008 29.008h-65.159c0.209 8.12 3.257 14.363 4.691 16.867l325.009 325.020c1.615 0.798 4.093 1.821 5.37 1.846 1.071-0.024 3.394-0.86 5.359-1.862l325.13-325.097c1.239-2.212 4.362-8.585 4.578-16.763h-65.159z"  horiz-adv-x="1024" />

    
    <glyph glyph-name="bixuan-copy" unicode="&#58936;" d="M547.542 420.272c29.055 13.472 57.269 27.092 83.805 40.469 26.528 13.567 47.775 23.583 63.453 29.855 15.721 6.133 28.308 9.407 37.854 9.407 15.722 0 29.289-5.142 40.8-15.912 11.51-10.484 17.216-23.817 17.216-39.488 0-8.981-2.849-18.432-8.468-28.075-5.568-9.684-11.605-15.913-17.876-18.622-58.111-22.837-122.171-39.635-191.932-50.015 12.682-11.511 28.213-27.188 46.697-46.463 18.484-19.561 28.213-29.855 28.96-31.166 6.828-9.407 16.235-21.152 28.404-35.093 12.161-14.038 20.587-24.895 25.312-32.799 4.726-8 7.113-17.408 7.113-28.682 0-14.409-5.385-27.092-16.235-37.854-10.718-10.857-24.8-16.278-41.929-16.278-17.129 0-36.264 13.387-57.789 39.87-21.384 26.483-49.034 74.346-82.814 143.271-34.206-62.046-57.269-103.175-68.872-123.015-11.743-19.648-23.018-34.674-33.781-44.873-10.858-10.102-23.167-15.253-37.195-15.253-16.659 0-30.558 5.706-41.694 17.216-10.806 11.511-16.47 23.913-16.47 36.873 0 12.161 2.197 21.385 6.741 27.605 41.46 56.287 84.647 105.416 129.799 146.641-37.854 5.941-71.592 12.543-101.299 19.648-29.76 7.348-61.394 17.78-94.662 31.818-5.473 2.763-10.718 8.981-15.913 18.623-5.056 9.547-7.583 18.527-7.583 26.624 0 15.679 5.706 28.96 17.216 39.488 11.51 10.719 24.66 15.912 39.583 15.912 10.858 0 24.287-3.275 40.564-9.782 16.138-6.602 36.734-15.998 61.717-28.352 25.035-12.396 53.575-26.25 85.533-41.599-5.846 28.404-10.719 61.012-14.548 97.608-3.84 36.735-5.706 61.853-5.706 75.424 0 16.659 5.29 30.835 15.818 42.91 10.719 11.934 24.19 17.877 40.895 17.877 16.374 0 29.62-5.941 40.236-17.877 10.667-12.073 15.913-27.883 15.913-47.722 0-5.385-0.886-16.053-2.432-32.148-1.407-16.053-3.84-35.326-6.688-58.015-2.955-22.75-6.23-48.861-9.739-78.056z"  horiz-adv-x="1024" />

    
    <glyph glyph-name="shanchu" unicode="&#58930;" d="M831.885 547.333c-16.002 1.27-29.943-10.656-31.208-26.625l-40.255-508.011h-497.279l-40.284 508.013c-1.267 15.97-15.247 27.886-31.21 26.623-15.97-1.267-27.889-15.239-26.623-31.21l42.242-532.685c1.278-16.125 14.949-28.757 31.125-28.757h546.783c16.175 0 29.847 12.632 31.125 28.757l42.209 532.687c1.265 15.971-10.655 29.943-26.625 31.208zM453.327 89.663v360.195c0 16.020-12.987 29.008-29.007 29.008s-29.007-12.987-29.007-29.008v-360.195c0-16.020 12.987-29.008 29.007-29.008s29.007 12.988 29.007 29.008zM635.753 89.663v360.195c0 16.020-12.987 29.008-29.008 29.008s-29.008-12.987-29.008-29.008v-360.195c0-16.020 12.987-29.008 29.008-29.008s29.008 12.988 29.008 29.008zM914.367 659.657h-124.167l-16.322 122.508c-2.058 15.52-15.415 27.224-31.072 27.224l-462.077 0c-15.643 0-28.999-11.693-31.070-27.206l-16.323-122.527h-124.134c-16.020 0-29.007-12.987-29.007-29.008s12.987-29.008 29.007-29.008h655.433c0.044 0 0.086-0.003 0.13-0.003 0.030 0 0.061 0.003 0.091 0.003h149.51c16.020 0 29.008 12.987 29.008 29.008s-12.988 29.008-29.008 29.008zM304.082 751.374h415.372l12.218-91.717h-439.809l12.218 91.717z"  horiz-adv-x="1024" />

    
    <glyph glyph-name="bd_mianfei" unicode="&#58970;" d="M330.233 475.776h139.777v-104.421h-139.777v104.421zM330.233 475.776zM604.559 584.421h-230.43l-43.363-58.942h220.039l53.754 58.942zM604.559 584.421zM519.709 475.776h154.96v-104.421h-154.96v104.421zM519.709 475.776zM512 856.137c-267.556 0-484.479-216.922-484.479-484.478s216.922-484.479 484.479-484.479c267.555 0 484.478 216.922 484.478 484.479 0.001 267.555-216.921 484.478-484.478 484.478v0zM779.126 114.491h-283.849v186.761l-265.245-208.615v64.614l209.412 164.404h-161.424v136.53l-7.474-10.223h-64.073l164.204 218.97h66.959l-25.271-32.842h306.197l-98.525-108.645h106.839v-203.817h-209.684v-3.187l-6.667-5.229h36.96v-149.057h181.066l8.175 128.217 51.239-30.766-8.843-147.11zM779.126 114.491z"  horiz-adv-x="1024" />

    
    <glyph glyph-name="xinfeng" unicode="&#58922;" d="M1021.867 596c2.133 9.6 1.333 19.467-5.333 27.467-1.067 1.067-3.2 0.8-4.533 2.133-11.2 25.867-30.933 43.733-68 43.733h-832c-39.467 0-82.133-15.2-101.333-44.533-0.8-0.8-2.133-0.8-2.933-1.333-6.667-8-7.733-17.867-5.867-27.2-0.267-2.4-1.867-4.267-1.867-6.933v-512c0-53.333 58.933-112 112-112h832c53.067 0 80.267 58.933 80.267 112v512c0 2.933-2.133 4-2.4 6.667zM928 605.333h16c0.267 0 0.267 0 0.533 0l-432.533-344.8-430.667 343.467c9.867 1.867 21.867 1.333 30.667 1.333h816zM944 29.333h-832c-17.6 0-48 30.133-48 48v458.667l427.2-341.333c5.867-5.333 13.333-8 20.8-8 7.467 0 14.933 2.667 21.067 7.733l427.2 341.333v-458.667c-0-17.6 1.333-47.733-16.267-47.733z"  horiz-adv-x="1024" />

    
    <glyph glyph-name="weixin" unicode="&#58955;" d="M921.6 896H102.4A102.4 102.4 0 0 1 0 793.6v-819.2a102.4 102.4 0 0 1 102.4-102.4h819.2a102.4 102.4 0 0 1 102.4 102.4V793.6A102.4 102.4 0 0 1 921.6 896zM392.3968 225.79200000000003A502.9888 502.9888 0 0 0 290.816 240.64l-101.376-51.2 28.9792 86.4256C145.8176 326.65599999999995 102.4 391.4752 102.4 470.4256c0 136.8064 130.56 244.4288 289.9968 244.4288 142.5408 0 267.4688-86.016 292.5568-201.8304a258.2528 258.2528 0 0 1-27.9552 1.7408c-137.728 0-246.4768-102.4-246.4768-227.5328a214.016 214.016 0 0 1 9.3184-60.3136c-9.4208-0.7168-18.3296-1.1264-27.4432-1.1264z m427.6224-100.7616l21.8112-71.68-79.5648 43.2128a365.9776 365.9776 0 0 0-86.9376-14.336c-137.9328 0-246.5792 93.3888-246.5792 208.5888s108.544 208.384 246.5792 208.384C805.5808 499.2 921.6 405.504 921.6 290.61120000000005c0-64.8192-43.4176-122.2656-101.5808-165.5808zM598.9376 355.328m-34.2016 0a34.2016 34.2016 0 1 1 68.4032 0 34.2016 34.2016 0 1 1-68.4032 0ZM497.4592 556.6464000000001m-40.96 0a40.96 40.96 0 1 1 81.92 0 40.96 40.96 0 1 1-81.92 0ZM294.4 556.6464000000001m-40.96 0a40.96 40.96 0 1 1 81.92 0 40.96 40.96 0 1 1-81.92 0ZM758.4768 355.328m-34.2016 0a34.2016 34.2016 0 1 1 68.4032 0 34.2016 34.2016 0 1 1-68.4032 0Z"  horiz-adv-x="1024" />

    
    <glyph glyph-name="qq" unicode="&#58956;" d="M861.525 893.725h-699.051c-87.381 0-160.199-72.818-160.199-160.199v-706.333c0-80.099 72.818-152.917 160.199-152.917h706.333c87.381 0 160.199 72.818 160.199 160.199v699.051c-7.282 87.381-80.099 160.199-167.481 160.199zM825.117 209.237c-7.282-21.845-21.845-29.127-58.254 43.691-7.282-21.845-43.691-80.099-50.973-87.381 0 0 43.691 0 43.691-43.691 14.563-21.845 7.282-43.691 7.282-43.691-7.282-21.845-123.79-87.381-233.017-7.282h-43.691c0 0-87.381-72.818-203.89-21.845-58.254 21.845-43.691 65.536-36.409 72.818-7.282 14.563 7.282 36.409 43.691 43.691 0 0-36.409 36.409-50.973 87.381 0 0-29.127-58.254-58.254-50.973-21.845 7.282-21.845 152.917 58.254 218.453 0 0-21.845 36.409 0 58.254 0 0-7.282 21.845 21.845 43.691 7.282 0 7.282 225.735 225.735 233.017 94.663 7.282 233.017-58.254 240.299-233.017 0 0 43.691-29.127 21.845-94.663 14.563-14.563 101.945-116.509 72.818-218.453z"  horiz-adv-x="1024" />

    
    <glyph glyph-name="weibiaoti1" unicode="&#58958;" d="M1019.33312 542.208c-19.712 123.968-110.528 222.464-232.832 252.096-14.208 3.456-28.928 4.864-43.456 7.296-1.792 0.32-3.648 0.96-5.376 1.408-15.68 0-31.36 0-47.104 0-9.728-1.472-19.712-2.368-29.312-4.608-16.384-3.776-32.96-7.424-48.896-12.736C571.58912 771.968 530.75712 770.752 489.86112 784.384 464.06912 793.024 437.95712 799.616 410.75712 801.792 409.73312 801.92 408.70912 802.624 407.68512 803.008c-15.744 0-31.424 0-47.168 0-12.16-1.92-24.32-3.584-36.48-5.824C203.97312 775.36 103.55712 675.712 80.58112 556.16 72.96512 516.288 73.02912 476.224 77.44512 436.096c0.96-8.448-0.832-13.888-7.744-19.904C27.33312 379.712 3.07712 333.248 0.45312 277.184c-3.968-83.52 22.4-156.736 78.592-218.88 3.264-3.648 4.736-7.104 4.608-12.032-0.32-12.352-0.128-24.768-0.064-37.184 0.192-31.744 30.08-51.456 59.328-39.104 10.304 4.288 20.672 8.512 30.72 13.376 4.736 2.176 8.576 2.112 13.376 0.128 40.704-16.576 83.072-23.744 126.976-21.504 56.96 3.008 108.864 20.864 155.84 53.312 2.56 1.728 6.528 2.56 9.664 2.112 89.472-12.032 175.936-1.344 258.944 34.944 4.928 2.24 9.024 2.368 14.016 0.192 20.736-9.344 41.984-17.92 62.656-27.584 35.392-16.448 70.592 11.008 68.864 44.992-1.28 24.768-0.128 49.472-0.384 74.304-0.064 4.864 1.344 8.448 4.8 11.968 65.92 68.16 108.352 148.8 125.888 241.92 4.544 23.744 5.44 48.128 8.064 72.256 0.192 1.792 0.768 3.584 1.216 5.312 0 12.416 0 24.768 0 37.184C1022.14912 522.688 1020.86912 532.48 1019.33312 542.208zM351.49312 34.304c-51.136-11.392-100.672-6.656-148.48 14.848-14.784 6.656-29.44 6.656-44.224 0.448-2.176-0.896-4.352-1.856-6.592-2.688-0.384-0.128-0.896 0.128-1.344 0.192-0.448 7.36-0.512 14.656-1.536 22.016-1.472 10.688-6.784 19.584-14.4 27.264-42.752 43.712-65.344 95.936-68.16 157.184C65.34912 285.12 72.00512 313.92 89.73312 340.096c1.28 1.856 2.688 3.712 4.544 6.08 47.296-143.872 140.16-245.12 280.576-305.152C366.21312 38.528 358.98112 35.968 351.49312 34.304zM954.75712 453.376c-6.016-70.144-27.84-134.912-67.84-192.96-14.912-21.632-32.64-41.472-50.112-61.248-12.288-13.824-19.648-28.736-19.392-47.488 0.32-17.792 0.064-35.648 0.064-54.72-15.936 6.784-30.592 13.056-45.12 19.52-18.496 8.192-36.736 7.872-55.168-0.512-156.16-70.656-338.112-37.184-458.368 84.928-63.104 64-101.312 140.992-113.728 230.016C138.43712 478.784 137.22112 526.976 154.69312 573.248c33.6 88.96 97.344 142.848 191.104 159.872C386.88512 740.544 427.07712 735.36 466.69312 721.792c56.704-19.392 113.344-17.472 170.048 1.536 138.752 46.656 286.144-38.528 315.264-181.824C957.82912 512.256 957.18912 482.816 954.75712 453.376zM330.50112 302.848l425.792 0 0-42.88-425.792 0 0 42.88ZM330.50112 588.672l425.792 0 0-41.472-425.792 0 0 41.472ZM330.50112 452.928l425.792 0 0-41.408-425.792 0 0 41.408Z"  horiz-adv-x="1025" />

    
    <glyph glyph-name="time" unicode="&#59020;" d="M511.999488 895.975441c-282.736433 0-511.975441-229.183749-511.975441-511.975441 0-282.735409 229.239008-511.976464 511.975441-511.976464S1023.974929 101.264591 1023.974929 384C1023.974929 666.791691 794.735921 895.975441 511.999488 895.975441zM511.999488-71.088826c-250.932076 0-455.088826 204.155726-455.088826 455.088826 0 250.932076 204.15675 455.088826 455.088826 455.088826 250.933099 0 455.089849-204.15675 455.089849-455.088826C967.088314 133.066901 762.932588-71.088826 511.999488-71.088826zM821.290717 412.442796 540.443307 412.442796 540.443307 693.290205c0 15.722076-12.750395 28.442796-28.443819 28.442796s-28.442796-12.721743-28.442796-28.442796l0-309.290205c0-15.721053 12.749372-28.443819 28.442796-28.443819l309.291229 0c15.721053 0 28.442796 12.722766 28.442796 28.443819S837.01177 412.442796 821.290717 412.442796z"  horiz-adv-x="1024" />

    
    <glyph glyph-name="iconzhenghe43" unicode="&#58966;" d="M829.003 701.651c-84.718 84.736-197.336 131.393-317.149 131.393-119.78 0-232.432-46.657-317.15-131.393-174.826-174.861-174.826-459.387 0-634.282 84.718-84.717 197.336-131.375 317.15-131.375 119.779 0 232.431 46.658 317.149 131.375 84.718 84.718 131.41 197.371 131.41 317.168 0 119.814-46.691 232.431-131.41 317.114zM373.931 87.559l-42.564 108.25-123.292-5.933 114.39 182.191c32.026-54.841 86.698-94.746 151.19-106.819l-99.724-177.69zM341.736 483.801c0 95.445 77.385 172.831 172.848 172.831 95.461 0 172.848-77.387 172.848-172.831 0-95.446-77.387-172.848-172.848-172.848-95.463 0-172.848 77.402-172.848 172.848zM692.41 195.811l-42.633-108.25-95.904 177.485c64.050 11.459 118.517 50.341 151.054 104.125l110.775-179.293-123.292 5.933z"  horiz-adv-x="1024" />

    
    <glyph glyph-name="tui" unicode="&#58968;" d="M499.006 558.673h159.924v-35.044h-159.924v35.044zM499.006 468.854h159.924v-35.043h-159.924v35.043zM639.183 333.008c18.996 13.165 37.279 26.33 54.775 39.496l-113.915-0.034c21.929-13.132 41.611-26.297 59.141-39.462zM555.963 317.694c-8.764 7.3-15.348 12.382-19.747 15.314l39.462 39.462h-76.672v-89.801c21.897 7.297 47.408 13.847 76.672 19.713-4.401 4.364-10.982 9.482-19.715 15.313zM829.020 701.648c-84.721 84.737-197.341 131.395-317.156 131.395-119.817 0-232.437-46.658-317.157-131.395-174.829-174.847-174.829-459.398 0-634.261 84.721-84.72 197.341-131.376 317.157-131.376 119.783 0 232.436 46.657 317.156 131.34 84.72 84.756 131.412 197.377 131.412 317.157-0 119.832-46.692 232.47-131.412 317.139zM332.497 641.927c4.367-4.383 10.198-11.715 17.532-21.896 17.53-21.913 35.777-46.776 54.739-74.489l-61.289-39.443c-23.396 37.977-46.010 70.821-67.941 98.584l56.959 37.243zM757.497 138.053c-100.783 0-194.951 1.504-282.571 4.401-52.626 0-94.236 15.316-124.898 46.011-13.165-11.667-31.413-32.128-54.775-61.323l-30.662 76.634c1.433 1.469 3.649 3.649 6.582 6.587 11.665 8.763 26.978 21.144 45.976 37.242l-0 142.376h-50.375v67.923h113.915v-216.882c16.064-17.532 37.279-29.231 63.539-35.030l-26.26 45.977c8.73 10.199 13.845 26.296 15.278 48.227l0 319.832 293.589 0.017v-225.648l41.61-48.226c-2.932-1.433-6.547-3.615-10.948-6.547-29.229-18.999-51.84-32.13-67.904-39.427 23.361-17.53 46.009-33.63 67.904-48.227l-46.009-48.158c-43.826 33.559-84.721 63.507-122.682 89.803 0-21.931 0-38.712 0-50.376-67.187-14.664-111.731-27.762-133.628-39.462 37.963-4.365 147.51-5.148 328.615-2.149-10.265-23.364-18.996-44.545-26.296-63.577z"  horiz-adv-x="1024" />

    
    <glyph glyph-name="yuanquan" unicode="&#58990;" d="M511.998194 831.99842c-247.423167 0-447.996613-200.573446-447.996614-447.996614S264.575027-63.99842 511.998194-63.99842s448.000226 200.577059 448.000226 448.000226S759.421361 831.99842 511.998194 831.99842zM865.847424 234.562433a382.589794 382.589794 0 1 0 22.346547 71.992295 383.875822 383.875822 0 0 0-22.346547-71.992295z"  horiz-adv-x="1024" />

    
    <glyph glyph-name="usericon" unicode="&#58985;" d="M512-128C0-128 0-128 0 71.128615 0 180.302769 34.619077 219.529846 173.292308 275.495385 254.109538 308.105846 407.867077 213.346462 512 213.346462 617.156923 213.346462 771.820308 307.751385 853.149538 274.510769 990.444308 218.387692 1024 179.633231 1024 71.128615 1024-128 1024-128 512-128ZM512 327.128615C386.323692 327.128615 284.435692 454.459077 284.435692 611.564308 284.435692 768.669538 386.323692 896 512 896 637.676308 896 739.564308 768.669538 739.564308 611.564308 739.564308 454.459077 637.676308 327.128615 512 327.128615Z"  horiz-adv-x="1024" />

    
    <glyph glyph-name="saoyisao" unicode="&#58978;" d="M909.623818 493.894636c-14.136785 0-25.597133 11.460348-25.597133 25.597133V737.201529c0 12.376726-10.070936 22.445614-22.44971 22.445615H643.870287c-14.137809 0-25.597133 11.460348-25.597134 25.597133s11.459325 25.597133 25.597134 25.597133h217.706688c40.607292 0 73.643976-33.034636 73.643976-73.639881v-217.70976c0-14.136785-11.461372-25.597133-25.597133-25.597133zM110.989169 493.894636c-14.136785 0-25.597133 11.460348-25.597133 25.597133V737.201529c0 40.605244 33.03566 73.63988 73.642952 73.639881h217.703617c14.136785 0 25.597133-11.460348 25.597133-25.597133s-11.460348-25.597133-25.597133-25.597133H159.034988c-12.37775 0-22.448686-10.068888-22.448686-22.445615v-217.70976c0-14.136785-11.460348-25.597133-25.597133-25.597133zM376.738605-38.98341H159.034988c-40.607292 0-73.642952 33.036684-73.642952 73.642952V252.363159c0 14.136785 11.460348 25.597133 25.597133 25.597133s25.597133-11.460348 25.597133-25.597133v-217.703617c0-12.378774 10.069912-22.448686 22.448686-22.448686h217.703617c14.136785 0 25.597133-11.459325 25.597133-25.597133s-11.460348-25.597133-25.597133-25.597133zM861.576975-38.98341H643.870287c-14.137809 0-25.597133 11.459325-25.597134 25.597133s11.459325 25.597133 25.597134 25.597133h217.706688c12.378774 0 22.44971 10.069912 22.44971 22.448686V252.363159c0 14.136785 11.460348 25.597133 25.597133 25.597133s25.597133-11.460348 25.597133-25.597133v-217.703617c0-40.606268-33.036684-73.642952-73.643976-73.642952zM957.489433 358.425392H63.123554c-14.136785 0-25.597133 11.460348-25.597133 25.597133s11.460348 25.597133 25.597133 25.597134H957.489433c14.136785 0 25.597133-11.460348 25.597133-25.597134s-11.461372-25.597133-25.597133-25.597133z"  horiz-adv-x="1024" />

    
    <glyph glyph-name="uicon_qr_code" unicode="&#58995;" d="M118.404555 895.797567h220.58184a121.226939 121.226939 0 0 0 118.202083-118.202082v-220.58184a121.226939 121.226939 0 0 0-118.202083-118.202083H118.404555A121.226939 121.226939 0 0 0 0.202473 557.246326V777.595485A111.687007 111.687007 0 0 0 118.404555 895.797567z m0-78.646267a37.229002 37.229002 0 0 1-39.555815-39.555815v-220.58184a42.115309 42.115309 0 0 1 39.323134-39.323134h220.58184a50.491835 50.491835 0 0 1 39.323134 39.323134V777.595485a37.229002 37.229002 0 0 1-39.323134 39.323133z m0-488.630657h220.58184a121.226939 121.226939 0 0 0 118.202083-118.202083v-220.58184A121.226939 121.226939 0 0 0 338.753714-128H118.404555A121.226939 121.226939 0 0 0 0.202473-9.797916999999984v220.349158a116.340633 116.340633 0 0 0 118.202082 118.202083z m0-78.646268a37.229002 37.229002 0 0 1-39.323133-39.323134v-220.581839a37.229002 37.229002 0 0 1 39.323133-39.323134h220.58184a37.229002 37.229002 0 0 1 39.323134 39.323134v220.581839a37.229002 37.229002 0 0 1-39.323134 39.323134z m488.630658 78.646268h377.641693a39.323134 39.323134 0 1 0 0-78.646268H606.56985a39.323134 39.323134 0 0 0 0 78.646268z m-39.788497-417.197509v204.759513a39.323134 39.323134 0 0 0 78.646268 0v-204.759513a39.323134 39.323134 0 1 0-78.646268 0z m173.347543 78.646268v118.202082a39.323134 39.323134 0 1 0 78.646268 0v-118.202082a37.229002 37.229002 0 0 0-39.323134-39.323134 42.115309 42.115309 0 0 0-39.323134 39.323134z m173.347543-39.323134v165.436379a39.323134 39.323134 0 0 0 78.646267 0v-165.436379a39.323134 39.323134 0 1 0-78.646267 0zM685.448799 817.1513a37.229002 37.229002 0 0 1-39.323134-39.323134v-220.58184a37.229002 37.229002 0 0 1 39.323134-39.323134h220.58184a37.229002 37.229002 0 0 1 39.323133 39.323134V777.595485a37.229002 37.229002 0 0 1-39.323133 39.323133z m0 78.646267h220.58184A121.226939 121.226939 0 0 0 1024.00004 777.595485v-220.58184a121.226939 121.226939 0 0 0-118.202083-118.202083h-220.349158a121.226939 121.226939 0 0 0-118.202083 118.202083V777.595485A116.340633 116.340633 0 0 0 685.448799 895.797567z m0 0"  horiz-adv-x="1024" />

    
    <glyph glyph-name="tuxingyanzhengma" unicode="&#58982;" d="M853 704.2H173c-23.8 0-43.1-19.4-43.1-43.1v-554.8c0-23.8 19.4-43.1 43.1-43.1h680c23.8 0 43.1 19.4 43.1 43.1V661.1c0.1 23.8-19.3 43.1-43.1 43.1z m-680-35.5h680c4.2 0 7.6-3.4 7.6-7.6v-453.6L715.4 354.3c-8.1 8.2-18.9 12.7-30.4 12.8h-0.2c-11.4 0-22.2-4.4-30.3-12.4l-32.9-32.3-0.3 0.3-38.2-37.7-38 38.4-0.1-0.1-153.1 155.4c-8.1 8.2-18.9 12.7-30.4 12.8h-0.2c-11.5 0-22.3-4.4-30.4-12.5L165.4 315.4V661.1c0 4.2 3.4 7.6 7.6 7.6z m680-570.1H173c-4.2 0-7.6 3.4-7.6 7.6V265.4l190.4 188.4c1.9 1.9 4.2 2.2 5.4 2.2 1.2 0 3.4-0.3 5.3-2.2l153.3-155.4 0.1 0.1 46.2-46.7c4.4-4.5 10.4-7 16.7-7h0.1c6.3 0 12.2 2.4 16.7 6.8l30.2 29.9 0.2-0.2 49.2 48.4c1.9 1.9 4.2 2.2 5.4 2.2 0.9 0 3.5-0.3 5.4-2.3l169.6-171.5 0.9 0.9v-52.6c0.2-4.3-3.3-7.8-7.5-7.8zM620 528.3c0-32.9 26.7-59.6 59.6-59.6 32.9 0 59.6 26.7 59.6 59.6s-26.7 59.6-59.6 59.6c-32.9 0-59.6-26.7-59.6-59.6"  horiz-adv-x="1024" />

    
    <glyph glyph-name="jinyong" unicode="&#58983;" d="M910.8 590.4c-5.4 10.5-16.3 17.8-28.9 17.8-17.8 0-32.2-14.4-32.2-32.1 0-6 1.7-11.7 4.6-16.5l-0.1-0.1c26.9-52.4 42.1-111.8 42.1-174.7 0-94.4-34.1-180.8-90.7-247.6-0.8 1.1-1.8 2.2-2.8 3.2L271.2 672c-1.9 1.9-4 3.5-6.2 4.8 66.8 56.8 153.4 91.1 248 91.1 62.5 0 121.5-15 173.6-41.5l0.2 0.4c4.6-2.6 10-4.1 15.7-4.1 17.8 0 32.2 14.4 32.2 32.1 0 13.1-7.9 24.4-19.3 29.4C654.6 815 585.9 832.5 513 832.5 265.7 832.5 65.2 632 65.2 384.8S265.7-62.9 513-62.9s447.7 200.4 447.7 447.7c0 74.1-18 144-49.9 205.6z m-781-205.6c0 94.8 34.4 181.4 91.3 248.3 1.3-2.2 2.9-4.4 4.9-6.3l531.5-531.6c1-1 2.1-2 3.2-2.8-66.8-56.6-153.2-90.8-247.6-90.8-211.6 0-383.3 171.5-383.3 383.2zM772.7 676.3a32.2 32.1 0 1 1 64.4 0 32.2 32.1 0 1 1-64.4 0Z"  horiz-adv-x="1024" />

    
    <glyph glyph-name="chat" unicode="&#58991;" d="M236.0832-127.761067c-5.341867 0-10.717867 1.314133-15.616 3.9936a33.621333 33.621333 0 0 0-17.3568 29.525334v205.994666C71.918933 185.173333 0 310.033067 0 465.5104 0 710.929067 220.177067 896 512.187733 896c292.0448 0 512.256-185.070933 512.256-430.4896S804.232533 35.003733 512.187733 35.003733c-7.765333 0-15.394133 0.3584-23.022933 0.785067L254.276267-122.197333a32.529067 32.529067 0 0 0-18.193067-5.563734zM512.187733 828.962133c-254.4128 0-446.2592-156.2624-446.2592-363.451733 0-96.017067 32.068267-226.6112 184.763734-303.4112a33.6384 33.6384 0 0 0 18.346666-30.0544v-163.908267l192.8192 129.672534c5.853867 3.925333 12.970667 5.700267 19.7632 5.5296l8.2432-0.4608c7.406933-0.392533 14.779733-0.8192 22.306134-0.8192 254.446933 0 446.327467 156.2624 446.327466 363.451733S766.634667 828.962133 512.187733 828.962133zM732.245333 411.221333c-26.555733 0-48.128 22.033067-48.128 49.1008 0 27.136 21.572267 49.237333 48.128 49.237334 26.589867 0 48.196267-22.101333 48.196267-49.237334 0-27.067733-21.6064-49.1008-48.196267-49.1008z m0 67.054934c-9.693867 0-17.5616-8.055467-17.5616-17.937067 0.034133-19.712 35.2256-19.643733 35.191467 0 0 9.8816-7.901867 17.937067-17.629867 17.937067zM510.8224 411.221333c-26.589867 0-48.196267 22.033067-48.196267 49.1008 0 27.136 21.6064 49.237333 48.196267 49.237334 26.624 0 48.264533-22.101333 48.264533-49.237334 0-27.067733-21.640533-49.1008-48.264533-49.1008z m0 67.054934c-9.659733 0-17.493333-8.055467-17.493333-17.937067 0.034133-19.712 35.106133-19.643733 35.072 0 0 9.8816-7.867733 17.937067-17.578667 17.937067zM289.518933 411.221333c-26.555733 0-48.162133 22.033067-48.162133 49.1008 0 27.136 21.6064 49.237333 48.162133 49.237334s48.128-22.101333 48.128-49.237334c0-27.067733-21.572267-49.1008-48.128-49.1008z m0 67.054934c-9.728 0-17.629867-8.055467-17.629866-17.937067 0.034133-19.643733 35.259733-19.712 35.2256 0 0 9.8816-7.901867 17.937067-17.595734 17.937067z"  horiz-adv-x="1024" />

    
    <glyph glyph-name="shiliangzhinengduixiang" unicode="&#58993;" d="M494.854463 401.1709m-494.854463 0a494.854463 494.854463 0 1 1 989.708927 0 494.854463 494.854463 0 1 1-989.708927 0ZM494.803738-127.999493a524.96016 524.96016 0 0 0-306.230988 98.052758 34.315929 34.315929 0 0 0 7.963934 60.160668c123.719957 45.881386 136.629645 78.574093 136.629644 142.184107 0 13.670573-1.750036 16.206858-9.054535 26.859253-11.438643 16.688752-27.087518 39.540675-37.917453 98.179572-27.366509 11.76836-45.703846 32.667344-50.472061 95.110667-0.076089 26.65635 7.177685 46.312554 16.790203 59.704137a1877.611395 1877.611395 0 0 0-6.036357 38.855878c-8.851633 54.022859-32.692707 199.326597 117.785051 260.222787 89.885922 36.344956 189.333636 29.167271 231.283781-7.938571 22.801197-1.039877 71.015965-9.384253 106.092779-50.193069 53.946771-62.874492 41.975508-192.098186 35.178266-240.490494 9.764695-13.137954 17.145283-32.236176 17.145283-57.548295-4.869666-65.055697-23.18164-85.954681-51.182221-99.422351-10.221226-56.914224-25.844739-79.740784-37.258019-96.454898-7.279136-10.652395-9.029173-13.188679-9.029172-26.884616 0-63.66074 12.909688-96.302721 136.553556-142.184107a34.341292 34.341292 0 0 0 7.963933-60.160668 525.061611 525.061611 0 0 0-306.205624-98.052758z m-211.500762 120.346698c130.187482-67.896335 292.636502-67.896335 423.001524 0-88.2627 43.319739-118.469848 92.751923-118.469848 180.050835 0 34.95 11.159652 51.283672 21.025798 65.689768 8.82627 12.909688 18.819231 27.544049 27.036793 71.827576 6.010994 32.71807 27.036792 42.812482 37.131205 47.682148 4.235595 2.257293 9.967598 8.521916 12.377068 40.174746-0.101451 9.992961-3.576161 13.82275-3.626887 13.848114-14.279282 6.568977-18.311974 19.681568-15.395247 35.178265 11.362554 60.160668 13.873476 165.873004-16.790203 201.609253-21.406241 24.880951-55.468541 26.783164-65.436139 26.783164-2.485559 0-6.695791 0.278991-9.155987 0.811611-9.35889 2.079753-20.848258 8.876996-25.692562 17.170646-1.851488 1.496408-23.105552 14.279282-64.878157 14.279281-30.181785 0-61.936067-6.670428-94.400508-19.783019-82.632148-33.428229-90.012736-98.585377-75.657366-186.112554a1783.515241 1783.515241 0 0 1 8.82627-55.088099 34.315929 34.315929 0 0 0-18.083708-36.547859c1.648585-0.228266-0.760885-3.956604-0.811611-14.761176 2.308019-29.040457 8.040022-35.30508 8.11611-35.381168 14.279282-7.000145 35.30508-17.145283 41.316074-49.888716 8.192199-44.30889 18.210523-58.892525 27.062156-71.802213 9.866147-14.380733 21.051161-30.714405 21.051161-65.689768 0-87.273549-30.207148-136.705733-118.545936-180.050835z"  horiz-adv-x="1024" />

    
    <glyph glyph-name="ziyuan" unicode="&#58996;" d="M512-128a36.693333 36.693333 0 0 0-36.693333 36.693333v63.431111h-11.093334a411.022222 411.022222 0 0 0-362.951111 364.088889v11.093334H36.693333a36.693333 36.693333 0 1 0 0 73.386666h63.431111v11.093334a411.306667 411.306667 0 0 0 364.088889 362.951111h11.093334V859.306667a36.693333 36.693333 0 1 0 73.386666 0v-63.431111h11.093334a411.022222 411.022222 0 0 0 362.951111-364.088889v-11.093334h63.431111a36.693333 36.693333 0 0 0 0-73.386666h-62.293333v-11.093334a411.022222 411.022222 0 0 0-364.088889-362.951111h-11.093334v-63.431111A36.693333 36.693333 0 0 0 512-128z m0 319.146667a36.693333 36.693333 0 0 0 36.693333-36.693334v-108.942222l14.222223 2.275556a341.333333 341.333333 0 0 1 284.444444 284.444444l2.275556 14.506667h-108.088889a36.693333 36.693333 0 1 0 0 73.386666h108.657777l-2.275555 14.506667a341.333333 341.333333 0 0 1-284.444445 284.444445l-14.222222 2.275555v-107.804444a36.693333 36.693333 0 0 0-73.386666 0V722.204444l-14.222223-2.275555a341.333333 341.333333 0 0 1-284.444444-284.444445l-2.275556-14.506666h107.52a36.693333 36.693333 0 1 0 0-73.386667H173.795556l2.275555-14.506667a341.333333 341.333333 0 0 1 284.444445-284.444444l14.222222-2.275556v108.088889A36.693333 36.693333 0 0 0 512 191.146667z m0 156.16A36.693333 36.693333 0 1 0 548.693333 384 36.693333 36.693333 0 0 0 512 347.306667z"  horiz-adv-x="1024" />

    
    <glyph glyph-name="xiaodaishu" unicode="&#58997;" d="M765.013333-54.613333a136.533333 136.533333 0 0 0 67.982223-7.68c28.444444-13.937778 32.711111-47.217778 0-47.217778h-145.066667a280.462222 280.462222 0 0 1 47.786667 28.444444 276.195556 276.195556 0 0 1 28.444444 25.884445M796.017778 359.822222a164.977778 164.977778 0 0 0-98.417778-19.626666 325.688889 325.688889 0 0 0 88.746667-122.311112 1308.444444 1308.444444 0 0 0-148.764445-10.524444 158.435556 158.435556 0 0 1 35.271111 104.675556 71.111111 71.111111 0 0 1-21.617777 47.502222 113.777778 113.777778 0 0 0-25.031112 32.711111 56.888889 56.888889 0 0 0-4.551111 26.453333 67.697778 67.697778 0 0 0 9.386667 31.857778 68.835556 68.835556 0 0 0 8.817778 11.377778 102.115556 102.115556 0 0 0-28.444445 28.444444 98.417778 98.417778 0 0 0-17.635555 70.542222 104.96 104.96 0 0 0 62.293333-40.96 98.417778 98.417778 0 0 0 16.497778-38.4 89.884444 89.884444 0 0 0 14.222222 3.128889 75.946667 75.946667 0 0 0 3.982222 32.426667 79.928889 79.928889 0 0 0 37.546667 43.804444 76.515556 76.515556 0 0 0 2.56-56.888888 78.222222 78.222222 0 0 0-11.093333-20.764445c20.48-3.982222 37.262222-12.231111 49.777777-15.075555A89.315556 89.315556 0 0 1 821.902222 469.333333c30.151111 8.533333 44.373333-16.497778 24.177778-56.888889a128.284444 128.284444 0 0 0-50.631111-54.328888M578.702222 184.888889a132.835556 132.835556 0 0 0 21.902222-77.084445 223.857778 223.857778 0 0 0-68.835555-156.16 104.106667 104.106667 0 0 0 28.444444-9.102222 60.871111 60.871111 0 0 0 36.693334-56.888889 298.666667 298.666667 0 0 1 123.164444 51.768889c111.502222 83.911111 101.831111 217.315556 96.711111 252.871111a1507.555556 1507.555556 0 0 0-239.217778-6.542222M627.626667 348.728889c-7.964444 7.964444-21.333333 22.755556-32.426667 36.408889-48.355556 60.017778-71.68 131.128889-71.68 256 107.235556-47.502222 199.111111 8.533333 217.6 78.791111a51.768889 51.768889 0 0 1-10.24 51.2A69.688889 69.688889 0 0 1 679.68 782.222222l-158.151111-12.8a113.777778 113.777778 0 0 1 25.6 43.804445A110.364444 110.364444 0 0 1 541.724444 896a113.777778 113.777778 0 0 1-52.053333-64.853333 109.795556 109.795556 0 0 1 0-63.431111 82.773333 82.773333 0 0 1-25.6-6.826667 148.195556 148.195556 0 0 1-30.72 76.515555A158.151111 158.151111 0 0 1 338.346667 896a148.195556 148.195556 0 0 1 28.444444-105.528889 156.444444 156.444444 0 0 1 73.386667-52.053333 64.284444 64.284444 0 0 1 0-46.933334 458.524444 458.524444 0 0 0 32.995555-115.484444 316.871111 316.871111 0 0 0-6.826666-117.191111c-11.377778-40.391111-49.493333-64.284444-60.586667-80.782222a35.271111 35.271111 0 0 1 3.413333-42.097778c37.546667-42.097778 106.666667-58.311111 124.871111-39.537778a17.635556 17.635556 0 0 1 0 24.462222 54.328889 54.328889 0 0 1-32.995555 15.075556A138.808889 138.808889 0 0 0 447.573333 355.555556a143.644444 143.644444 0 0 1 60.302223-13.368889c52.622222-3.697778 52.906667-31.004444 50.915555-41.528889a39.822222 39.822222 0 0 0-10.24-17.92 55.182222 55.182222 0 0 0-40.391111-13.937778h-2.56a170.666667 170.666667 0 0 0-113.777778 54.328889 59.733333 59.733333 0 0 0-9.955555 16.213333l-2.844445-3.128889A311.182222 311.182222 0 0 1 309.902222 234.382222 207.644444 207.644444 0 0 1 292.551111 355.555556 85.333333 85.333333 0 0 1 224.568889 403.911111a62.008889 62.008889 0 0 1-56.888889-19.911111 51.484444 51.484444 0 0 0 65.706667-6.542222 76.231111 76.231111 0 0 0 15.928889-46.933334 174.364444 174.364444 0 0 0-16.497778-79.928888 263.964444 263.964444 0 0 1-15.075556-166.968889A232.675556 232.675556 0 0 1 292.266667-42.666667c5.12-4.551111 10.808889-8.817778 16.213333-13.084444C266.382222-125.155556 306.204444-128 332.373333-128h217.884445c34.133333 0 28.444444 34.986667 0 49.777778-43.235556 21.617778-140.231111 0-182.044445-15.928889-9.955556-3.697778-15.075556-6.542222-15.075555-6.542222a284.444444 284.444444 0 0 0 145.066666 53.475555 206.222222 206.222222 0 0 1 79.075556 154.737778c1.706667 105.813333-127.146667 168.106667-275.626667 27.022222l-8.533333-8.248889c58.88 106.097778 163.271111 131.128889 231.253333 102.684445a124.017778 124.017778 0 0 0 33.848889-21.048889h41.244445l3.413333 3.697778a174.933333 174.933333 0 0 1 26.168889 34.986666c17.635556 34.133333 28.444444 75.093333 0 102.684445"  horiz-adv-x="1024" />

    
    <glyph glyph-name="ziyuan1" unicode="&#58999;" d="M982.043922 293.547336L901.830678 355.556156v28.444413 28.444413l80.782132 63.715484a65.42215 65.42215 0 0 1 15.359983 83.34213l-93.01323 161.848709a65.42215 65.42215 0 0 1-56.888825 32.995519 67.128814 67.128814 0 0 1-24.177751-4.551106l-93.866563-38.684401a384.284017 384.284017 0 0 1-46.079948 28.444412l-14.222207 99.555445a65.706594 65.706594 0 0 1-64.568817 56.888826h-186.310904a65.42215 65.42215 0 0 1-64.568817-56.888826l-14.222207-101.546554a390.541788 390.541788 0 0 1-46.079948-28.444412L199.253681 749.795718A62.862152 62.862152 0 0 1 176.498151 753.777936a66.84437 66.84437 0 0 1-56.888826-32.711075L26.027207 558.36482a65.706594 65.706594 0 0 1 15.928871-83.911018L122.169322 412.444982v-56.888826L41.102745 292.97844799999996a65.42215 65.42215 0 0 1-15.075538-83.34213l93.01323-162.986485a65.137705 65.137705 0 0 1 80.782132-28.444413l94.151007 38.684401a385.990682 385.990682 0 0 1 46.079948-28.444413l14.222207-102.399886a65.137705 65.137705 0 0 1 64.568817-54.044384h186.02646a66.275482 66.275482 0 0 1 64.568817 56.888825l14.222206 101.830998a386.55957 386.55957 0 0 1 46.079949 28.444413l94.719895-38.684401a65.42215 65.42215 0 0 1 80.497688 28.444413l92.728786 162.702041a65.991038 65.991038 0 0 1-15.644427 81.919909z m-378.310691-229.261967l-15.075538-108.373213-153.030941-2.275553-15.359983 110.648766a42.382175 42.382175 0 0 1-25.599972 32.995518 304.355217 304.355217 0 0 0-69.119923 40.675511 42.382175 42.382175 0 0 1-25.599972 8.817768 41.813287 41.813287 0 0 1-16.213315-3.128886L184.74703 99.55643999999995l-79.644356 136.533182 87.324348 68.835479a42.382175 42.382175 0 0 1 15.644427 38.399958A304.639662 304.639662 0 0 0 204.942563 384.000569a310.328544 310.328544 0 0 0 2.844442 40.391066 42.097731 42.097731 0 0 1-15.928872 38.684402l-85.333238 65.991037 74.808806 137.10207 102.399886-41.813287a41.813287 41.813287 0 0 1 15.928871-3.128885 42.097731 42.097731 0 0 1 25.599972 8.817768 307.768547 307.768547 0 0 0 69.119923 40.67551 42.382175 42.382175 0 0 1 25.599971 33.279963L433.066754 810.666761l155.306494 2.275554 15.359983-110.648766a42.097731 42.097731 0 0 1 25.599972-32.995519A305.20855 305.20855 0 0 0 699.875347 630.04474a42.097731 42.097731 0 0 1 41.813287-5.404438L839.25297 668.444697l79.9288-135.110961-87.324348-69.119923a42.382175 42.382175 0 0 1-15.644427-38.399957 318.29298 318.29298 0 0 0 2.844442-40.675511 306.061882 306.061882 0 0 0-2.844442-40.67551 42.382175 42.382175 0 0 1 15.928872-38.399957l85.333238-65.991038L842.097411 101.83199400000001l-102.68433 41.813286a41.244399 41.244399 0 0 1-15.928872 3.128886 42.097731 42.097731 0 0 1-25.884415-8.817768 301.79522 301.79522 0 0 0-69.119923-40.675511 42.382175 42.382175 0 0 1-24.74664-32.995518zM512.142222 596.764777A212.764208 212.764208 0 1 1 723.199765 384.000569a212.19532 212.19532 0 0 1-211.057543 212.764208z m0-85.333239A128.568746 128.568746 0 1 0 384.995697 384.000569a127.999858 127.999858 0 0 0 127.146525 128.568746z"  horiz-adv-x="1024" />

    
    <glyph glyph-name="ziyuan3" unicode="&#59000;" d="M1115.452941 542.119285a186.843039 186.843039 0 0 1-140.879651 136.021732A197.306249 197.306249 0 0 1 719.719385 821.262785a209.637889 209.637889 0 0 1-316.138421 0A196.558877 196.558877 0 0 1 149.474431 677.767331s-149.474431-16.815873-149.474431-205.901029S232.059054 92.20124699999997 270.922406 73.89062999999999a118.832173 118.832173 0 0 1 58.295028-170.400852c120.700603-59.0424 442.07063-23.168537 485.791901 11.210583s67.63718 80.716193 37.368608 159.190269c0 0 313.896305 186.843039 261.580254 467.481283zM716.35621 694.209518s85.574112 85.574112 149.474431-16.068501S747.372155 160.95948599999997 639.003192 126.95405300000004c0 0 106.126846 285.122477 76.979332 567.255465z m-257.469707-14.947443c13.452699 108.368962 92.300461 112.105823 92.300461 112.105823s152.090234 48.57919 112.105823-319.501596S560.529116 120.22770300000002 560.529116 120.22770300000002c-84.453053 30.268572-116.21637 450.665409-102.763671 560.529116z m-199.548365 0c62.779261 102.016299 149.474431 16.068501 149.474431 16.068501C378.17031 410.208099 485.791901 126.95405300000004 485.791901 126.95405300000004c-108.742649 34.005433-284.748791 454.028584-224.211647 550.813278z m-151.716548-219.727413c-11.210582 143.86914 93.795205 108.368962 93.795206 108.368962 7.847408-176.006142 180.864061-430.112675 181.237747-430.112675-68.384552 25.410653-263.822371 177.874573-274.659267 321.743713z m646.476914-478.691866c-102.763671-45.589701-360.980751-15.694815-381.907171 0-15.321129 12.331641 24.289595 74.737215 24.289595 74.737216 14.947443-9.342152 48.205504 5.605291 48.205504 5.605291 18.684304-18.310618 82.210937-5.605291 82.210937-5.605291a74.737215 74.737215 0 0 1 76.979332 0 129.295383 129.295383 0 0 1 82.210937 5.605291c11.957954-10.089524 47.084446-5.605291 47.084446-5.605291 45.216015-64.647691 21.300106-74.737215 21.300106-74.737216z m-12.705326 156.574467s173.016654 254.106533 180.864061 430.112675c0 0 105.005788 37.368608 93.795206-108.368963s-206.274715-296.333059-274.659267-321.743712z m0 0"  horiz-adv-x="1121" />

    
    <glyph glyph-name="ziyuan4" unicode="&#59001;" d="M1071.28068 139.50911299999996a37.63791 37.63791 0 0 1-37.63791-37.63791v-116.646416A37.63791 37.63791 0 0 0 995.382746-52.41312300000004H113.224787a37.63791 37.63791 0 0 0-37.63791 37.63791V666.750911a37.63791 37.63791 0 0 0 37.63791 37.948967h886.201701a37.63791 37.63791 0 0 0 37.637911-37.63791v-110.73633a37.63791 37.63791 0 1 1 75.27582 0V666.750911a113.224787 113.224787 0 0 1-113.224788 113.224788H796.306197v31.10571A85.229648 85.229648 0 0 1 711.387606 896H199.076549a85.229648 85.229648 0 0 1-85.229647-84.918591v-31.10571A113.224787 113.224787 0 0 1 0 666.750911v-681.526124a113.224787 113.224787 0 0 1 113.224787-113.224787H995.382746a113.224787 113.224787 0 0 1 113.224787 113.224787v116.646416a37.63791 37.63791 0 0 1-37.326853 37.63791zM170.770352 811.081409a28.306197 28.306197 0 0 0 28.306197 28.306197h512.311057a28.306197 28.306197 0 0 0 28.306197-28.306197v-31.10571H170.770352zM808.748481 301.56986600000005a37.015796 37.015796 0 0 1 62.211422 25.81774 37.015796 37.015796 0 0 1-73.720535 0 37.326853 37.326853 0 0 1 11.509113-25.81774zM1119.805589 477.939247H729.739976a67.188335 67.188335 0 0 1-67.188336-67.188336v-166.415553a67.188335 67.188335 0 0 1 66.877279-66.877278H1119.805589a67.188335 67.188335 0 0 1 66.877279 66.877278V410.750911A67.188335 67.188335 0 0 1 1119.805589 477.939247z m-6.221142-227.382746H735.650061v155.528554h377.623329z"  horiz-adv-x="1186" />

    
    <glyph glyph-name="ziyuan5" unicode="&#59002;" d="M1025.883121 896H131.72119A133.592423 133.592423 0 0 1 0.005944 764.284754v-623.222731a130.463795 130.463795 0 0 1 131.715246-131.715246h281.576536l115.133516-118.575008a68.204094 68.204094 0 0 1 42.862206-18.771769 79.467156 79.467156 0 0 1 47.242286 16.581729l116.072105 119.513596h285.018026A131.402383 131.402383 0 0 1 1157.598367 137.62053200000003v625.725634A133.592423 133.592423 0 0 1 1025.883121 896z m40.672167-761.820959c0-19.397495-25.967614-37.230675-45.365109-37.230676H719.590423a40.359303 40.359303 0 0 1-31.286281-14.391689l-109.814849-112.630614-111.692026 112.630614a40.046441 40.046441 0 0 1-31.286281 15.017415H131.72119a42.23648 42.23648 0 0 0-40.672166 40.672166v625.725634a45.365108 45.365108 0 0 0 40.672166 40.672166h894.161931a45.365108 45.365108 0 0 0 40.672167-40.672166zM578.802156 540.58784a75.399939 75.399939 0 1 1 75.399939-75.399939 77.589979 77.589979 0 0 1-75.399939 75.399939zM844.73555 536.833486a75.399939 75.399939 0 1 1 75.399939-75.399939A74.774213 74.774213 0 0 1 844.73555 536.833486zM311.304447 536.833486a75.399939 75.399939 0 0 1 0-151.112741 77.589979 77.589979 0 0 1 75.399939 75.399939 74.774213 74.774213 0 0 1-75.399939 75.712802z"  horiz-adv-x="1157" />

    
    <glyph glyph-name="ziyuan6" unicode="&#59003;" d="M560.257347 896H992.784495c80.815079 0 124.40074-40.861557 127.124843-123.492705 1.816069-107.450761 0-214.901522 0-322.352283 0-142.86411-2.118747-285.72822 0-428.592331 1.816069-90.80346-37.834775-151.3391-146.798926-149.52303-280.885369 4.237495-561.770738 0-842.656108 0C44.796374-126.14427999999998 0-85.88807899999995 0 0.677885999999944V770.085869C0 855.441121 45.40173 896 131.665017 896zM56.600823 610.8771360000001a151.3391 151.3391 0 0 1-2.118747-17.555336v-597.486766c0-47.823156 21.79283-66.891882 70.826699-66.891882h857.790017c65.681169 0 82.631148 16.647301 82.631149 81.420436V611.1798140000001H726.427679v-275.73984c0-49.639225-36.92674-77.485619-72.945446-52.666006a148.614996 148.614996 0 0 1-188.871197 0 44.796374 44.796374 0 0 0-70.221342 30.26782 156.484629 156.484629 0 0 0-0.908035 40.558878V611.1798140000001z m613.226033-275.73984V837.885786h-219.441695v-502.445812c28.754429 14.528554 54.179398 25.424969 78.090975 39.650845a55.995467 55.995467 0 0 0 64.167779 0c23.306221-14.831232 49.033868-25.727647 77.485619-39.953523zM390.757556 840.004533H102.60791a48.125834 48.125834 0 0 1-46.309765-49.033868c-3.632138-39.348166 0-79.301688 0-119.255211h334.459411z m674.06435-169.499792c0 40.861557 2.421426 78.696332 0 115.925751a53.87672 53.87672 0 0 1-60.53564 53.574041h-274.529127v-169.499792z"  horiz-adv-x="1121" />

    
    <glyph glyph-name="ziyuan7" unicode="&#59004;" d="M422.574184 226.94797700000004zM890.832477 682.578314L226.670204 712.953669h-8.532403l-17.064807 91.80866v4.095553A118.429758 118.429758 0 0 1 55.680842 891.792843a52.9009 52.9009 0 1 1 27.30369-102.38884 11.945365 11.945365 0 0 0 9.214996 0 11.945365 11.945365 0 0 0 5.119442-6.14333L221.209466 110.90729199999998a52.9009 52.9009 0 0 1 52.218308-43.344608h625.254514a52.9009 52.9009 0 1 1 0 106.143097h-580.203424L237.59168 606.469276l648.462651-29.692763h2.389073a12.286661 12.286661 0 0 0 11.945365-10.921477l-13.310549-186.688984v-3.754257a12.286661 12.286661 0 0 0-11.945365-11.945365h-3.412961l-452.558672-30.716652a52.9009 52.9009 0 0 1 3.412962-105.801801h3.412961l451.876079 30.03406a118.088462 118.088462 0 0 1 116.040685 116.040685l13.651845 187.712872v3.754258a118.088462 118.088462 0 0 1-116.723277 118.088462zM817.112512-44.72374400000001m-83.276256 0a83.276256 83.276256 0 1 1 166.552513 0 83.276256 83.276256 0 1 1-166.552513 0ZM408.922339-44.72374400000001m-83.276257 0a83.276256 83.276256 0 1 1 166.552513 0 83.276256 83.276256 0 1 1-166.552513 0Z"  horiz-adv-x="1024" />

    
    <glyph glyph-name="ziyuan8" unicode="&#59005;" d="M851.317752-127.99764300000004a173.269241 173.269241 0 0 0-169.143783 138.202848v4.714809h-196.548612v-4.714809a172.67989 172.67989 0 0 0-338.287567 0v4.714809H0V526.7714980000001L250.179568 669.0998030000001V794.6316A101.3684 101.3684 0 0 0 351.547968 896h713.998931a101.3684 101.3684 0 0 0 101.3684-101.3684V14.920014000000037h-145.275061v-4.714809a172.974566 172.974566 0 0 0-170.322486-138.202848z m0 285.835314a113.155423 113.155423 0 1 1 113.155423-113.155423 113.155423 113.155423 0 0 1-113.155423 113.155423z m-535.720205 0a113.155423 113.155423 0 1 1 113.155423-113.155423 113.155423 113.155423 0 0 1-113.155423 113.155423z m535.720205 58.935116a173.269241 173.269241 0 0 0 169.143784-138.202848v-4.714809h85.750594V794.6316A41.843932 41.843932 0 0 1 1065.546899 837.064884H351.547968a41.843932 41.843932 0 0 1-41.843933-41.549257v-161.187543L58.935116 491.999779v-417.555298h86.339945v4.71481a172.67989 172.67989 0 0 0 338.287567 0v-4.71481h195.36991v4.71481A172.974566 172.974566 0 0 0 851.317752 218.24616500000002zM249.884892 372.066818v59.524467h178.868078V610.164687h59.524467v-238.097869H249.884892z"  horiz-adv-x="1166" />

    
    <glyph glyph-name="ziyuan9" unicode="&#59006;" d="M460.10387 589.297691a153.351154 153.351154 0 1 1-153.351155 153.351155 153.351154 153.351154 0 0 1 153.351155-153.351155z m0 255.377886a102.337789 102.337789 0 1 0-102.337789-102.026731 102.337789 102.337789 0 0 0 102.337789 102.337788z m331.897934-563.63548a153.351154 153.351154 0 1 1-153.351154 153.351155 153.351154 153.351154 0 0 1 153.351154-153.351155z m0 255.377886a102.337789 102.337789 0 1 0-102.337789-102.337789 102.337789 102.337789 0 0 0 102.337789 102.337789z m230.804374-461.608748a144.330498 144.330498 0 0 1-139.975699 103.893074h-213.385176a201.253949 201.253949 0 0 1-158.639125 74.653706h-96.427703c-62.211422 74.964763-162.993925 95.183475-209.963548 100.782503v27.684082a25.506683 25.506683 0 0 1-25.506683 25.506683H25.557089a25.506683 25.506683 0 0 1-25.506682-25.506683v-458.498177a25.506683 25.506683 0 0 1 25.506682-25.506683h153.351155a25.506683 25.506683 0 0 1 25.506683 25.506683v35.149453c65.010936-31.105711 195.343864-86.473876 255.377885-86.473876 145.574727 0 531.596598 165.482382 548.082625 172.325638a25.506683 25.506683 0 0 1 14.619684 31.105711z m-869.404617-124.422844H51.063772V357.56014600000003h102.337789z m306.702309-25.506683c-51.013366 0-190.055893 62.211422-255.377886 91.761847V304.991495c43.547995-5.910085 130.955043-25.81774 176.680437-89.584448a25.506683 25.506683 0 0 1 20.840826-10.575941h108.247874a150.55164 150.55164 0 0 0 118.201701-55.368166 124.422843 124.422843 0 0 0 24.573512-47.28068h-298.614824a25.506683 25.506683 0 0 1 0-51.013366h326.609963a25.506683 25.506683 0 0 1 25.506683 25.506683 153.351154 153.351154 0 0 1-9.020656 51.013366h184.767922A90.828676 90.828676 0 0 0 964.327442 81.65249100000005c-86.784933-36.082625-388.510328-157.705954-504.223572-158.328068z m0 0"  horiz-adv-x="1024" />

    
    <glyph glyph-name="ziyuan10" unicode="&#59007;" d="M1057.138097 226.676065a2019.127203 2019.127203 0 0 0-320.881769-275.603973c-26.576097-19.685998-53.480295-39.700096-81.368792-57.417494a107.944889 107.944889 0 0 0-126.974688-1.6405 2468.296059 2468.296059 0 0 0-365.831464 295.289971C88.915091 261.782762 26.247997 343.807754 8.202499 449.784044-17.389298 598.413329 14.764499 731.950016 137.801987 830.380006a325.803268 325.803268 0 0 0 405.85966-13.780198c15.092599-13.452099 29.857097-27.560397 40.356296-37.075297A682.776033 682.776033 0 0 0 711.320731 866.799103c193.250881 74.806793 401.266261 1.9686 459.339955-244.762576 33.794297-152.566485-12.467799-281.509773-113.522589-395.360462z"  horiz-adv-x="1181" />

    
    <glyph glyph-name="ziyuan11" unicode="&#59008;" d="M544.95451 729.952018S596.141571 886.925672 536.423334 893.46624a294.325601 294.325601 0 0 1-205.601362-49.480825C355.278012 812.704433 382.86215 781.992196 382.86215 781.992196L317.456461 833.179257a354.328211 354.328211 0 0 1-28.437256-25.59353L364.093561 696.680428A335.843995 335.843995 0 0 0 544.95451 729.952018zM557.466903 693.267957C421.536819 705.495977 361.818581 656.868269 361.818581 656.868269S-222.851405-112.075137 538.698314-128c0 0 748.468582 0 18.768589 821.267957z m-14.503001-665.716166V-42.688232h-67.680669v65.40569a277.263247 277.263247 0 0 0-116.877123 28.437256l20.759197 80.477435a243.13854 243.13854 0 0 1 113.749025-30.143492c39.243413 0 65.974434 15.071746 65.974434 42.655884s-21.896687 42.655884-72.799376 60.002611c-73.652493 24.740413-123.702064 59.149493-123.702064 125.977044 0 60.571356 42.655884 108.061573 116.308378 122.564574v65.405689H544.95451v-60.571355a247.119756 247.119756 0 0 0 99.814769-22.749805l-19.906079-77.633709a227.498049 227.498049 0 0 1-98.961651 23.31855c-44.646492 0-59.149493-19.337334-59.149493-38.390296s24.171668-37.252806 82.468043-59.149493c81.899298-28.437256 113.749025-66.827552 113.749024-128.536398s-40.949649-111.758417-120.005221-126.545789z"  horiz-adv-x="1024" />

    
    <glyph glyph-name="ziyuan12" unicode="&#59009;" d="M1182.14073 501.213006A77.462508 77.462508 0 0 1 1223.929715 581.393497V780.825481A116.193762 116.193762 0 0 1 1108.755196 896H116.011997A116.193762 116.193762 0 0 1 0.837478 780.825481v-199.431984a77.462508 77.462508 0 0 1 41.788985-80.520239c27.859323-13.929662 90.712674-48.923689 90.712674-118.911745a109.738553 109.738553 0 0 0-87.315195-115.174519h-3.397479A91.39217 91.39217 0 0 1 0.837478 186.606503v-199.092236a116.193762 116.193762 0 0 1 115.174519-115.174519h992.743199A116.193762 116.193762 0 0 1 1223.929715-12.485733v199.092236a87.654944 87.654944 0 0 1-41.788985 76.783013c-69.988056 33.974784-90.712674 62.853351-90.712674 118.911745s20.724618 80.520239 90.712674 118.911745z m-384.594559-167.835435a38.391506 38.391506 0 1 0 0-76.783012h-146.771068v-146.771069a38.391506 38.391506 0 0 0-76.783013 0v146.771069h-146.771068a38.391506 38.391506 0 0 0 0 76.783012h146.771068v90.712675h-157.303251a38.391506 38.391506 0 1 0 0 76.783012h115.174519L408.534891 624.201725a37.032515 37.032515 0 1 0 52.321167 52.321168L612.383597 525.674851l150.168546 150.168546A37.032515 37.032515 0 0 0 816.232303 624.201725l-122.309224-122.309223h111.77704a38.391506 38.391506 0 0 0 0-76.783013H646.358381v-90.712674z"  horiz-adv-x="1224" />

    
    <glyph glyph-name="ziyuan14" unicode="&#59011;" d="M512.133126 895.978667A432.346548 432.346548 0 0 1 75.52 467.614258a422.3912 422.3912 0 0 1 104.957813-278.46531L496.489008-121.742353a22.755081 22.755081 0 0 1 31.288237 0S843.504 187.726756 843.504 188.86451a421.253446 421.253446 0 0 1 104.957814 278.46531A432.346548 432.346548 0 0 1 512.133126 895.978667z m0-601.01859A184.31616 184.31616 0 1 0 701.284741 478.991799a186.022791 186.022791 0 0 0-189.151615-184.031722z"  horiz-adv-x="1024" />

    
    <glyph glyph-name="ziyuan15" unicode="&#59012;" d="M1002.434562 700.569473a186.908847 186.908847 0 0 0-3.124616-28.405599v-5.68112a188.613183 188.613183 0 0 0-10.510071-33.234552c-1.704336-3.976784-3.976784-7.669512-5.965176-11.646296a191.169687 191.169687 0 0 0-10.226016-18.747696c-2.84056-4.544896-6.249232-8.805736-9.657904-13.066576s-7.385456-9.373848-11.36224-13.918744-7.953568-7.953568-12.498464-11.930352-8.52168-7.385456-13.066576-10.794127-9.089792-6.533288-13.918744-9.657904-10.794128-5.965176-16.191192-8.805736-9.089792-4.544896-13.918744-6.533288a189.181295 189.181295 0 0 0-22.72448-7.1014l-10.226015-2.84056a187.476959 187.476959 0 0 0-36.359168-3.692728 189.465351 189.465351 0 0 0-39.199728 3.976784 184.352343 184.352343 0 0 0-32.382384 10.226016l-10.510072 4.544896a187.476959 187.476959 0 0 0-19.599863 10.510072c-4.544896 2.84056-8.52168 5.68112-12.78252 8.805736s-7.953568 6.533288-11.930352 9.94196a189.749407 189.749407 0 0 0-14.2028 13.350631l-275.818374-145.720727a180.375559 180.375559 0 0 0-5.68112-111.634007l267.58075-145.436671a189.749407 189.749407 0 1 0-36.075112-110.213727 167.593039 167.593039 0 0 0 2.556504 28.4056l-284.055998 153.674295a190.317519 190.317519 0 1 0 13.634688 263.603966l274.114038 145.720727c0 3.408672 0 6.533288-2.272448 9.94196v4.828952a188.329127 188.329127 0 0 0-3.692728 35.222943v1.704336a178.671223 178.671223 0 0 0 14.2028 71.014c1.42028 3.408672 3.408672 6.533288 5.113008 9.94196a190.033463 190.033463 0 0 0 11.078184 20.452032c2.84056 4.26084 5.965176 8.237624 9.373848 12.498464s7.385456 9.657904 11.646296 14.202799 8.237624 8.237624 12.498464 11.930352 8.237624 7.1014 12.78252 10.510072 9.657904 6.817344 14.770912 9.94196 9.657904 5.397064 14.770911 7.953568 10.226016 5.113008 15.62308 7.1014a189.749407 189.749407 0 0 0 19.315808 5.965176c4.544896 0 8.805736 2.84056 13.634688 3.692728A188.045071 188.045071 0 0 0 811.832988 896a191.169687 191.169687 0 0 0 39.483784-4.26084 189.181295 189.181295 0 0 0 30.962103-9.657904l11.36224-5.397064c3.976784-1.988392 7.953568-3.408672 11.646296-5.397064s1.704336-1.704336 2.84056-2.556504a189.749407 189.749407 0 0 0 94.022535-163.616255v-3.124616c0-1.136224 0.568112-0.852168 0.284056-1.42028z"  horiz-adv-x="1024" />

    
    <glyph glyph-name="ziyuan16" unicode="&#59013;" d="M178.062222 385.991111v-464.782222c0-36.408889-8.533333-53.475556-47.217778-48.071111A428.942222 428.942222 0 0 1 76.231111-128V896h846.506667l-237.226667-244.622222 262.257778-265.386667z"  horiz-adv-x="1024" />

    
    <glyph glyph-name="gerenziliaoshezhi1" unicode="&#59014;" d="M990.435556 258.275556H798.151111a31.857778 31.857778 0 1 0 0 63.715555h191.431111a31.857778 31.857778 0 1 0 0-63.715555z m0 191.431111h-256a31.857778 31.857778 0 1 0 0 63.715555h256a31.857778 31.857778 0 0 0 0-63.715555z m0 191.431111h-256a31.857778 31.857778 0 1 0 0 63.715555h256a31.857778 31.857778 0 0 0 0-63.715555zM703.431111 194.275556v-131.128889A191.431111 191.431111 0 0 0 512-128H193.137778A191.431111 191.431111 0 0 0 1.706667 63.431111v130.844445a190.577778 190.577778 0 0 0 129.137777 180.053333 339.626667 339.626667 0 0 0-65.422222 202.524444C65.422222 753.777778 193.991111 896 352.426667 896s287.004444-142.222222 287.004444-318.862222a339.626667 339.626667 0 0 0-65.422222-202.524445 190.862222 190.862222 0 0 0 129.137778-180.053333z m-127.715555 382.862222c0 142.222222-99.84 256-223.288889 256s-223.288889-113.777778-223.288889-256 99.84-256 223.288889-256 223.288889 113.777778 223.288889 256z m63.715555-398.222222a146.488889 146.488889 0 0 1-120.32 139.377777 262.826667 262.826667 0 0 0-333.084444 0 146.488889 146.488889 0 0 1-120.32-139.377777v-99.271112a150.471111 150.471111 0 0 1 156.444444-142.222222h260.835556a150.471111 150.471111 0 0 1 156.444444 142.222222z m158.72-48.355556h191.431111a31.857778 31.857778 0 0 0 0-63.715556H798.151111a31.857778 31.857778 0 1 0 0 63.715556z m0 0"  horiz-adv-x="1024" />

    
    <glyph glyph-name="mimaxiugai" unicode="&#59015;" d="M806.962155 512.00352h-7.111045v96.141341a288.139581 288.139581 0 0 1-575.994721 0v-96.141341h-6.826604A158.434103 158.434103 0 0 1 56.889031 352.147208v-319.997067A158.434103 158.434103 0 0 1 217.029785-127.990613h589.93237A158.434103 158.434103 0 0 1 967.10291 32.150141V352.147208a158.434103 158.434103 0 0 1-160.140755 160.140754zM287.855803 608.144861a224.140168 224.140168 0 0 0 447.995893 0v-96.141341H287.855803z m614.963252-575.99472a94.150248 94.150248 0 0 0-96.141341-96.141341H217.029785a96.141341 96.141341 0 0 0-96.141341 96.141341V352.147208a96.141341 96.141341 0 0 0 96.141341 96.14134h589.93237a94.150248 94.150248 0 0 0 96.141341-96.14134z m0 0M607.852869 256.005867a93.296923 93.296923 0 0 0-63.999413-89.599179v-102.399061A34.417462 34.417462 0 0 0 511.99597 32.150141a34.417462 34.417462 0 0 0-32.141927 31.857486v102.399061a93.296923 93.296923 0 0 0-63.999414 89.599179 95.856899 95.856899 0 1 0 191.99824 0z m0 0"  horiz-adv-x="1024" />

    
    <glyph glyph-name="xiaoxitishiyin" unicode="&#59016;" d="M506.720437-127.959683a199.023518 199.023518 0 0 0-184.944684 138.548526l-3.519709 11.519046H76.356077A29.757536 29.757536 0 0 0 52.678038 32.027068a38.39682 38.39682 0 0 0-10.239152 24.317986 307.494536 307.494536 0 0 0 104.311361 213.102352l5.759523 4.799603V479.989971A308.454456 308.454456 0 0 0 362.412388 771.805805l8.639284 2.879761 1.919841 8.959258A144.947996 144.947996 0 0 0 511.840013 895.955524 136.628685 136.628685 0 0 0 650.38854 779.805142v-9.919178l9.279231-3.199735a308.454456 308.454456 0 0 0 209.262671-290.215967v-207.662803l5.759523-4.799602a304.934748 304.934748 0 0 0 104.631335-204.783042v-13.118913a34.237165 34.237165 0 0 0-33.917191-33.917191 39.036767 39.036767 0 0 0-17.918516 3.199735l-3.519709 1.599867h-218.861875l-3.519709-11.519046A189.10434 189.10434 0 0 0 516.959589-127.959683z m-103.351441 125.109639a127.989401 127.989401 0 0 1 103.351441-57.275257h9.919179a120.310037 120.310037 0 0 1 103.351441 57.275257l16.638622 24.957933h-249.899305zM511.840013 831.960823a73.593906 73.593906 0 0 1-76.153693-76.153693v-3.839682a31.99735 31.99735 0 0 0-27.197748-34.237165 235.500498 235.500498 0 0 1-188.144419-231.020869v-223.981451a29.437562 29.437562 0 0 0-12.79894-26.557801 247.659491 247.659491 0 0 1-86.392846-123.189798l-7.039417-21.118251h795.134153l-7.039417 21.118251a233.90063 233.90063 0 0 1-85.752899 117.750249 44.79629 44.79629 0 0 0-13.75886 27.197747V479.989971a241.579994 241.579994 0 0 1-187.504473 232.620736 31.99735 31.99735 0 0 0-28.797615 34.237165v9.919178A73.593906 73.593906 0 0 1 511.840013 831.960823z"  horiz-adv-x="1024" />

    
    </font>
</defs>
</svg>
